<svg width="88" height="78" viewBox="0 0 88 78" fill="none" xmlns="http://www.w3.org/2000/svg">
<path d="M2.57834 67.3592H15.4689V75.0936C15.4689 76.5174 16.6232 77.6717 18.0471 77.6717H85.4219C86.8457 77.6717 88 76.5174 88 75.0936V8.06248C88 6.63867 86.8457 5.48436 85.4219 5.48436H72.5313V2.90624C72.5313 1.48244 71.377 0.328125 69.9532 0.328125C68.5294 0.328125 67.3751 1.48244 67.3751 2.90624V5.48436H54.3126V2.90624C54.3126 1.48244 53.1583 0.328125 51.7345 0.328125C50.3107 0.328125 49.1564 1.48244 49.1564 2.90624V5.48436H36.2658V2.90624C36.2658 1.48244 35.1115 0.328125 33.6876 0.328125C32.2638 0.328125 31.1095 1.48244 31.1095 2.90624V5.48436H18.0471C16.6232 5.48436 15.4689 6.63867 15.4689 8.06248V23.5312C15.4689 42.5319 7.57215 57.1492 0.927823 62.8006C0.0938867 63.4955 -0.215316 64.6381 0.154043 65.6589C0.523745 66.6795 1.49277 67.3592 2.57834 67.3592ZM82.8438 72.5155H20.6252V67.3592H69.9532C70.5563 67.3592 71.1403 67.1478 71.6037 66.7616C74.703 64.1802 79.5036 58.0344 82.8438 50.1628V72.5155ZM20.6252 10.6406H31.1095V13.2187C31.1095 14.6425 32.2638 15.7968 33.6876 15.7968C35.1115 15.7968 36.2658 14.6425 36.2658 13.2187V10.6406H49.1564V13.2187C49.1564 14.6425 50.3107 15.7968 51.7345 15.7968C53.1583 15.7968 54.3126 14.6425 54.3126 13.2187V10.6406H67.3751V13.2187C67.3751 14.6425 68.5294 15.7968 69.9532 15.7968C71.377 15.7968 72.5313 14.6425 72.5313 13.2187V10.6406H82.8438V20.9531H20.6252V10.6406ZM20.581 26.1076H82.7981C82.2171 42.4623 75.9401 55.3302 68.9422 62.203H8.44253C16.3716 52.1 20.1556 38.9453 20.581 26.1076Z" fill="white"/>
</svg>
