<svg width="88" height="78" viewBox="0 0 88 78" fill="none" xmlns="http://www.w3.org/2000/svg">
<path d="M2.57827 67.3592H15.4689V75.0936C15.4689 76.5174 16.6232 77.6717 18.047 77.6717H85.4219C86.8457 77.6717 88 76.5174 88 75.0936V8.06248C88 6.63867 86.8457 5.48436 85.4219 5.48436H72.5313V2.90624C72.5313 1.48244 71.3769 0.328125 69.9531 0.328125C68.5293 0.328125 67.375 1.48244 67.375 2.90624V5.48436H54.3125V2.90624C54.3125 1.48244 53.1582 0.328125 51.7344 0.328125C50.3106 0.328125 49.1563 1.48244 49.1563 2.90624V5.48436H36.2657V2.90624C36.2657 1.48244 35.1114 0.328125 33.6876 0.328125C32.2638 0.328125 31.1095 1.48244 31.1095 2.90624V5.48436H18.047C16.6232 5.48436 15.4689 6.63867 15.4689 8.06248V23.5312C15.4689 42.5319 7.57209 57.1492 0.927761 62.8006C0.0938256 63.4955 -0.215377 64.6381 0.153982 65.6589C0.523684 66.6795 1.49271 67.3592 2.57827 67.3592ZM82.8437 72.5155H20.6251V67.3592H69.9531C70.5563 67.3592 71.1403 67.1478 71.6037 66.7616C74.7029 64.1802 79.5035 58.0344 82.8437 50.1628V72.5155ZM20.6251 10.6406H31.1095V13.2187C31.1095 14.6425 32.2638 15.7968 33.6876 15.7968C35.1114 15.7968 36.2657 14.6425 36.2657 13.2187V10.6406H49.1563V13.2187C49.1563 14.6425 50.3106 15.7968 51.7344 15.7968C53.1582 15.7968 54.3125 14.6425 54.3125 13.2187V10.6406H67.375V13.2187C67.375 14.6425 68.5293 15.7968 69.9531 15.7968C71.3769 15.7968 72.5313 14.6425 72.5313 13.2187V10.6406H82.8437V20.9531H20.6251V10.6406ZM20.5809 26.1076H82.798C82.2171 42.4623 75.94 55.3302 68.9422 62.203H8.44246C16.3716 52.1 20.1556 38.9453 20.5809 26.1076Z" fill="black"/>
</svg>
