<svg width="81" height="81" viewBox="0 0 81 81" fill="none" xmlns="http://www.w3.org/2000/svg">
<path d="M40.5 81C18.1679 81 0 62.8321 0 40.5C0 18.1679 18.1679 0 40.5 0C48.0652 0 55.4442 2.09953 61.8407 6.07257C62.9586 6.76626 63.3012 8.23526 62.6075 9.35333C61.9126 10.4712 60.4436 10.8163 59.3268 10.1201C53.686 6.61599 47.1756 4.76484 40.5 4.76484C20.7954 4.76484 4.76466 20.7961 4.76466 40.5002C4.76466 60.2043 20.7954 76.2353 40.5 76.2353C60.2041 76.2353 76.2353 60.2041 76.2353 40.5C76.2353 36.5394 75.5926 32.6506 74.3246 28.9419C73.8989 27.6974 74.5641 26.3424 75.8087 25.9168C77.0557 25.4937 78.4081 26.1563 78.8338 27.4009C80.2706 31.6072 81.0002 36.0146 81.0002 40.5002C81 62.8321 62.8321 81 40.5 81Z" fill="black"/>
<path d="M40.5 54.2408C39.8957 54.2408 39.3113 54.0112 38.869 53.5943L28.1971 43.5L19.8102 35.6908C18.8511 34.7901 18.8039 33.2824 19.7048 32.3233C20.6057 31.3654 22.1132 31.3157 23.0723 32.2191L31.6851 40.3098L40.298 48.4005L71.5984 11.2432C72.4447 10.2369 73.9485 10.1079 74.9548 10.9565C75.9611 11.804 76.0901 13.3065 75.2415 14.3128L42.3215 53.3935C41.9009 53.8934 41.2917 54.1988 40.6389 54.2373C40.5932 54.2396 40.546 54.2408 40.5 54.2408Z" fill="black"/>
</svg>
