<svg width="81" height="81" viewBox="0 0 81 81" fill="none" xmlns="http://www.w3.org/2000/svg">
<path d="M40.5 81C18.1679 81 0 62.8321 0 40.5C0 18.1679 18.1679 0 40.5 0C48.0652 0 55.4442 2.09953 61.8407 6.07257C62.9586 6.76626 63.3012 8.23526 62.6075 9.35333C61.9126 10.4712 60.4436 10.8163 59.3268 10.1201C53.686 6.61599 47.1756 4.76484 40.5 4.76484C20.7954 4.76484 4.76466 20.7961 4.76466 40.5002C4.76466 60.2043 20.7954 76.2353 40.5 76.2353C60.2041 76.2353 76.2353 60.2041 76.2353 40.5C76.2353 36.5394 75.5926 32.6506 74.3246 28.9419C73.8989 27.6974 74.5641 26.3424 75.8087 25.9168C77.0557 25.4937 78.4081 26.1563 78.8338 27.4009C80.2706 31.6072 81.0002 36.0146 81.0002 40.5002C81 62.8321 62.8321 81 40.5 81Z" fill="white"/>
<path d="M40.4998 54.2408C39.8955 54.2408 39.3111 54.0112 38.8688 53.5943L28.1968 43.5L19.81 35.6908C18.8509 34.7901 18.8037 33.2824 19.7046 32.3233C20.6055 31.3654 22.113 31.3157 23.0721 32.2191L31.6849 40.3098L40.2977 48.4005L71.5982 11.2432C72.4445 10.2369 73.9482 10.1079 74.9545 10.9565C75.9608 11.804 76.0898 13.3065 75.2412 14.3128L42.3213 53.3935C41.9007 53.8934 41.2914 54.1988 40.6387 54.2373C40.5929 54.2396 40.5457 54.2408 40.4998 54.2408Z" fill="white"/>
</svg>
