<svg width="32" height="32" viewBox="0 0 32 32" fill="none" xmlns="http://www.w3.org/2000/svg">
<path d="M16 25.334C16.2637 25.334 16.5215 25.2558 16.7407 25.1093C16.96 24.9628 17.1309 24.7545 17.2318 24.5109C17.3327 24.2673 17.3591 23.9992 17.3077 23.7405C17.2562 23.4819 17.1292 23.2443 16.9428 23.0578C16.7563 22.8714 16.5187 22.7444 16.2601 22.6929C16.0014 22.6415 15.7333 22.6679 15.4897 22.7688C15.2461 22.8697 15.0378 23.0406 14.8913 23.2599C14.7448 23.4792 14.6666 23.7369 14.6666 24.0007C14.6666 24.3543 14.8071 24.6934 15.0572 24.9435C15.3072 25.1935 15.6463 25.334 16 25.334ZM22.6666 25.334C22.9303 25.334 23.1881 25.2558 23.4074 25.1093C23.6267 24.9628 23.7976 24.7545 23.8985 24.5109C23.9994 24.2673 24.0258 23.9992 23.9743 23.7405C23.9229 23.4819 23.7959 23.2443 23.6094 23.0578C23.423 22.8714 23.1854 22.7444 22.9267 22.6929C22.6681 22.6415 22.4 22.6679 22.1564 22.7688C21.9127 22.8697 21.7045 23.0406 21.558 23.2599C21.4115 23.4792 21.3333 23.7369 21.3333 24.0007C21.3333 24.3543 21.4738 24.6934 21.7238 24.9435C21.9739 25.1935 22.313 25.334 22.6666 25.334ZM22.6666 20.0007C22.9303 20.0007 23.1881 19.9225 23.4074 19.7759C23.6267 19.6294 23.7976 19.4212 23.8985 19.1776C23.9994 18.9339 24.0258 18.6658 23.9743 18.4072C23.9229 18.1486 23.7959 17.911 23.6094 17.7245C23.423 17.538 23.1854 17.4111 22.9267 17.3596C22.6681 17.3082 22.4 17.3346 22.1564 17.4355C21.9127 17.5364 21.7045 17.7073 21.558 17.9266C21.4115 18.1458 21.3333 18.4036 21.3333 18.6673C21.3333 19.0209 21.4738 19.3601 21.7238 19.6101C21.9739 19.8602 22.313 20.0007 22.6666 20.0007ZM16 20.0007C16.2637 20.0007 16.5215 19.9225 16.7407 19.7759C16.96 19.6294 17.1309 19.4212 17.2318 19.1776C17.3327 18.9339 17.3591 18.6658 17.3077 18.4072C17.2562 18.1486 17.1292 17.911 16.9428 17.7245C16.7563 17.538 16.5187 17.4111 16.2601 17.3596C16.0014 17.3082 15.7333 17.3346 15.4897 17.4355C15.2461 17.5364 15.0378 17.7073 14.8913 17.9266C14.7448 18.1458 14.6666 18.4036 14.6666 18.6673C14.6666 19.0209 14.8071 19.3601 15.0572 19.6101C15.3072 19.8602 15.6463 20.0007 16 20.0007ZM25.3333 4.00065H24V2.66732C24 2.3137 23.8595 1.97456 23.6094 1.72451C23.3594 1.47446 23.0202 1.33398 22.6666 1.33398C22.313 1.33398 21.9739 1.47446 21.7238 1.72451C21.4738 1.97456 21.3333 2.3137 21.3333 2.66732V4.00065H10.6666V2.66732C10.6666 2.3137 10.5262 1.97456 10.2761 1.72451C10.0261 1.47446 9.68691 1.33398 9.33329 1.33398C8.97967 1.33398 8.64053 1.47446 8.39048 1.72451C8.14044 1.97456 7.99996 2.3137 7.99996 2.66732V4.00065H6.66663C5.60576 4.00065 4.58834 4.42208 3.8382 5.17222C3.08805 5.92237 2.66663 6.93978 2.66663 8.00065V26.6673C2.66663 27.7282 3.08805 28.7456 3.8382 29.4957C4.58834 30.2459 5.60576 30.6673 6.66663 30.6673H25.3333C26.3942 30.6673 27.4116 30.2459 28.1617 29.4957C28.9119 28.7456 29.3333 27.7282 29.3333 26.6673V8.00065C29.3333 6.93978 28.9119 5.92237 28.1617 5.17222C27.4116 4.42208 26.3942 4.00065 25.3333 4.00065ZM26.6666 26.6673C26.6666 27.0209 26.5262 27.3601 26.2761 27.6101C26.0261 27.8602 25.6869 28.0006 25.3333 28.0006H6.66663C6.313 28.0006 5.97387 27.8602 5.72382 27.6101C5.47377 27.3601 5.33329 27.0209 5.33329 26.6673V14.6673H26.6666V26.6673ZM26.6666 12.0007H5.33329V8.00065C5.33329 7.64703 5.47377 7.30789 5.72382 7.05784C5.97387 6.80779 6.313 6.66732 6.66663 6.66732H7.99996V8.00065C7.99996 8.35427 8.14044 8.69341 8.39048 8.94346C8.64053 9.19351 8.97967 9.33398 9.33329 9.33398C9.68691 9.33398 10.0261 9.19351 10.2761 8.94346C10.5262 8.69341 10.6666 8.35427 10.6666 8.00065V6.66732H21.3333V8.00065C21.3333 8.35427 21.4738 8.69341 21.7238 8.94346C21.9739 9.19351 22.313 9.33398 22.6666 9.33398C23.0202 9.33398 23.3594 9.19351 23.6094 8.94346C23.8595 8.69341 24 8.35427 24 8.00065V6.66732H25.3333C25.6869 6.66732 26.0261 6.80779 26.2761 7.05784C26.5262 7.30789 26.6666 7.64703 26.6666 8.00065V12.0007ZM9.33329 20.0007C9.597 20.0007 9.85479 19.9225 10.0741 19.7759C10.2933 19.6294 10.4642 19.4212 10.5651 19.1776C10.666 18.9339 10.6925 18.6658 10.641 18.4072C10.5896 18.1486 10.4626 17.911 10.2761 17.7245C10.0896 17.538 9.85205 17.4111 9.59341 17.3596C9.33477 17.3082 9.06668 17.3346 8.82305 17.4355C8.57941 17.5364 8.37118 17.7073 8.22467 17.9266C8.07816 18.1458 7.99996 18.4036 7.99996 18.6673C7.99996 19.0209 8.14044 19.3601 8.39048 19.6101C8.64053 19.8602 8.97967 20.0007 9.33329 20.0007ZM9.33329 25.334C9.597 25.334 9.85479 25.2558 10.0741 25.1093C10.2933 24.9628 10.4642 24.7545 10.5651 24.5109C10.666 24.2673 10.6925 23.9992 10.641 23.7405C10.5896 23.4819 10.4626 23.2443 10.2761 23.0578C10.0896 22.8714 9.85205 22.7444 9.59341 22.6929C9.33477 22.6415 9.06668 22.6679 8.82305 22.7688C8.57941 22.8697 8.37118 23.0406 8.22467 23.2599C8.07816 23.4792 7.99996 23.7369 7.99996 24.0007C7.99996 24.3543 8.14044 24.6934 8.39048 24.9435C8.64053 25.1935 8.97967 25.334 9.33329 25.334Z" fill="black" fill-opacity="0.8"/>
</svg>
