<svg width="32" height="32" viewBox="0 0 32 32" fill="none" xmlns="http://www.w3.org/2000/svg">
<path d="M15.9993 25.334C16.2631 25.334 16.5208 25.2558 16.7401 25.1093C16.9594 24.9628 17.1303 24.7545 17.2312 24.5109C17.3321 24.2673 17.3585 23.9992 17.3071 23.7405C17.2556 23.4819 17.1286 23.2443 16.9422 23.0578C16.7557 22.8714 16.5181 22.7444 16.2595 22.6929C16.0008 22.6415 15.7327 22.6679 15.4891 22.7688C15.2455 22.8697 15.0372 23.0406 14.8907 23.2599C14.7442 23.4792 14.666 23.7369 14.666 24.0007C14.666 24.3543 14.8065 24.6934 15.0565 24.9435C15.3066 25.1935 15.6457 25.334 15.9993 25.334ZM22.666 25.334C22.9297 25.334 23.1875 25.2558 23.4068 25.1093C23.626 24.9628 23.7969 24.7545 23.8979 24.5109C23.9988 24.2673 24.0252 23.9992 23.9737 23.7405C23.9223 23.4819 23.7953 23.2443 23.6088 23.0578C23.4224 22.8714 23.1848 22.7444 22.9261 22.6929C22.6675 22.6415 22.3994 22.6679 22.1558 22.7688C21.9121 22.8697 21.7039 23.0406 21.5574 23.2599C21.4109 23.4792 21.3327 23.7369 21.3327 24.0007C21.3327 24.3543 21.4732 24.6934 21.7232 24.9435C21.9733 25.1935 22.3124 25.334 22.666 25.334ZM22.666 20.0007C22.9297 20.0007 23.1875 19.9225 23.4068 19.7759C23.626 19.6294 23.7969 19.4212 23.8979 19.1776C23.9988 18.9339 24.0252 18.6658 23.9737 18.4072C23.9223 18.1486 23.7953 17.911 23.6088 17.7245C23.4224 17.538 23.1848 17.4111 22.9261 17.3596C22.6675 17.3082 22.3994 17.3346 22.1558 17.4355C21.9121 17.5364 21.7039 17.7073 21.5574 17.9266C21.4109 18.1458 21.3327 18.4036 21.3327 18.6673C21.3327 19.0209 21.4732 19.3601 21.7232 19.6101C21.9733 19.8602 22.3124 20.0007 22.666 20.0007ZM15.9993 20.0007C16.2631 20.0007 16.5208 19.9225 16.7401 19.7759C16.9594 19.6294 17.1303 19.4212 17.2312 19.1776C17.3321 18.9339 17.3585 18.6658 17.3071 18.4072C17.2556 18.1486 17.1286 17.911 16.9422 17.7245C16.7557 17.538 16.5181 17.4111 16.2595 17.3596C16.0008 17.3082 15.7327 17.3346 15.4891 17.4355C15.2455 17.5364 15.0372 17.7073 14.8907 17.9266C14.7442 18.1458 14.666 18.4036 14.666 18.6673C14.666 19.0209 14.8065 19.3601 15.0565 19.6101C15.3066 19.8602 15.6457 20.0007 15.9993 20.0007ZM25.3327 4.00065H23.9993V2.66732C23.9993 2.3137 23.8589 1.97456 23.6088 1.72451C23.3588 1.47446 23.0196 1.33398 22.666 1.33398C22.3124 1.33398 21.9733 1.47446 21.7232 1.72451C21.4732 1.97456 21.3327 2.3137 21.3327 2.66732V4.00065H10.666V2.66732C10.666 2.3137 10.5255 1.97456 10.2755 1.72451C10.0254 1.47446 9.6863 1.33398 9.33268 1.33398C8.97906 1.33398 8.63992 1.47446 8.38987 1.72451C8.13983 1.97456 7.99935 2.3137 7.99935 2.66732V4.00065H6.66602C5.60515 4.00065 4.58773 4.42208 3.83759 5.17222C3.08744 5.92237 2.66602 6.93978 2.66602 8.00065V26.6673C2.66602 27.7282 3.08744 28.7456 3.83759 29.4957C4.58773 30.2459 5.60515 30.6673 6.66602 30.6673H25.3327C26.3935 30.6673 27.411 30.2459 28.1611 29.4957C28.9113 28.7456 29.3327 27.7282 29.3327 26.6673V8.00065C29.3327 6.93978 28.9113 5.92237 28.1611 5.17222C27.411 4.42208 26.3935 4.00065 25.3327 4.00065ZM26.666 26.6673C26.666 27.0209 26.5255 27.3601 26.2755 27.6101C26.0254 27.8602 25.6863 28.0006 25.3327 28.0006H6.66602C6.31239 28.0006 5.97326 27.8602 5.72321 27.6101C5.47316 27.3601 5.33268 27.0209 5.33268 26.6673V14.6673H26.666V26.6673ZM26.666 12.0007H5.33268V8.00065C5.33268 7.64703 5.47316 7.30789 5.72321 7.05784C5.97326 6.80779 6.31239 6.66732 6.66602 6.66732H7.99935V8.00065C7.99935 8.35427 8.13983 8.69341 8.38987 8.94346C8.63992 9.19351 8.97906 9.33398 9.33268 9.33398C9.6863 9.33398 10.0254 9.19351 10.2755 8.94346C10.5255 8.69341 10.666 8.35427 10.666 8.00065V6.66732H21.3327V8.00065C21.3327 8.35427 21.4732 8.69341 21.7232 8.94346C21.9733 9.19351 22.3124 9.33398 22.666 9.33398C23.0196 9.33398 23.3588 9.19351 23.6088 8.94346C23.8589 8.69341 23.9993 8.35427 23.9993 8.00065V6.66732H25.3327C25.6863 6.66732 26.0254 6.80779 26.2755 7.05784C26.5255 7.30789 26.666 7.64703 26.666 8.00065V12.0007ZM9.33268 20.0007C9.59639 20.0007 9.85418 19.9225 10.0734 19.7759C10.2927 19.6294 10.4636 19.4212 10.5645 19.1776C10.6654 18.9339 10.6918 18.6658 10.6404 18.4072C10.5889 18.1486 10.462 17.911 10.2755 17.7245C10.089 17.538 9.85144 17.4111 9.5928 17.3596C9.33416 17.3082 9.06607 17.3346 8.82244 17.4355C8.5788 17.5364 8.37056 17.7073 8.22406 17.9266C8.07755 18.1458 7.99935 18.4036 7.99935 18.6673C7.99935 19.0209 8.13983 19.3601 8.38987 19.6101C8.63992 19.8602 8.97906 20.0007 9.33268 20.0007ZM9.33268 25.334C9.59639 25.334 9.85418 25.2558 10.0734 25.1093C10.2927 24.9628 10.4636 24.7545 10.5645 24.5109C10.6654 24.2673 10.6918 23.9992 10.6404 23.7405C10.5889 23.4819 10.462 23.2443 10.2755 23.0578C10.089 22.8714 9.85144 22.7444 9.5928 22.6929C9.33416 22.6415 9.06607 22.6679 8.82244 22.7688C8.5788 22.8697 8.37056 23.0406 8.22406 23.2599C8.07755 23.4792 7.99935 23.7369 7.99935 24.0007C7.99935 24.3543 8.13983 24.6934 8.38987 24.9435C8.63992 25.1935 8.97906 25.334 9.33268 25.334Z" fill="white" fill-opacity="0.8"/>
</svg>
