<svg width="106" height="106" viewBox="0 0 106 106" fill="none" xmlns="http://www.w3.org/2000/svg">
<mask id="path-1-outside-1" maskUnits="userSpaceOnUse" x="6.28711" y="10.7344" width="94" height="85" fill="black">
<rect fill="white" x="6.28711" y="10.7344" width="94" height="85"/>
<path d="M95.8559 68.0045L65.9258 91.8388C65.0938 92.4993 57.0191 93.9229 56.0544 94.3681C55.8816 94.4477 55.6947 94.4926 55.5045 94.5C55.3144 94.5074 55.1246 94.4774 54.946 94.4115C54.7674 94.3456 54.6036 94.2451 54.4639 94.1159C54.3241 93.9867 54.2112 93.8312 54.1315 93.6584C54.0519 93.4855 54.007 93.2986 53.9996 93.1085C53.9922 92.9183 54.0222 92.7285 54.0881 92.5499C54.154 92.3714 54.2545 92.2075 54.3837 92.0678C54.5129 91.928 54.6684 91.8151 54.8412 91.7355C55.5959 91.3873 63.4729 90.0855 64.1238 89.5689L94.0498 65.7371C94.8708 65.0828 95.409 64.138 95.5529 63.098C95.6968 62.0581 95.4355 61.0026 94.823 60.1499C94.2105 59.2973 93.2937 58.7126 92.2623 58.517C91.2308 58.3214 90.1636 58.5297 89.2814 59.0988L68.3605 72.5716C69.1917 73.6628 69.654 74.9902 69.6803 76.3616C69.7067 77.7331 69.2958 79.0773 68.5072 80.1996C67.7186 81.3219 66.5931 82.164 65.2939 82.604C63.9947 83.0439 62.5891 83.0588 61.2809 82.6466L41.0456 76.2833C40.6789 76.1679 40.3731 75.9115 40.1955 75.5706C40.0178 75.2297 39.9828 74.8322 40.0982 74.4655C40.2137 74.0989 40.47 73.793 40.8109 73.6154C41.1518 73.4377 41.5493 73.4027 41.916 73.5182L62.1487 79.8823C63.0054 80.152 63.9324 80.0887 64.7444 79.705C65.5565 79.3212 66.1939 78.6453 66.5294 77.8122C66.865 76.9791 66.8739 76.05 66.5545 75.2106C66.235 74.3712 65.6107 73.6831 64.8062 73.2838L64.7664 73.2623L42.6795 62.4138C39.6454 60.924 36.3234 60.1126 32.9441 60.036C29.5649 59.9593 26.2094 60.6193 23.1109 61.97L10.1855 67.6054V88.7573L13.0467 86.8071C16.4619 84.4785 20.3954 83.0216 24.5035 82.5637C28.6116 82.1058 32.7694 82.6608 36.6135 84.1803L55.7028 91.7281C56.0602 91.8696 56.3469 92.1472 56.4996 92.5C56.6523 92.8528 56.6587 93.2518 56.5173 93.6092C56.3758 93.9667 56.0982 94.2533 55.7454 94.406C55.3926 94.5588 54.9936 94.5651 54.6362 94.4237L35.5485 86.8758C32.1444 85.5307 28.4627 85.0395 24.825 85.445C21.1873 85.8504 17.7042 87.1404 14.6798 89.202L9.55286 92.6967C9.33513 92.8455 9.0809 92.9321 8.81759 92.947C8.55428 92.962 8.29189 92.9048 8.05872 92.7815C7.82555 92.6583 7.63045 92.4737 7.49447 92.2478C7.35849 92.0218 7.28679 91.763 7.28711 91.4992V66.6555C7.28781 66.374 7.37049 66.0987 7.52506 65.8634C7.67962 65.6281 7.89937 65.4429 8.15747 65.3305L21.954 59.3183C25.4378 57.7992 29.2104 57.0568 33.01 57.1426C36.8096 57.2284 40.5449 58.1404 43.9565 59.8152L66.0061 70.6388L87.7171 56.6575C89.2247 55.6871 91.0477 55.3331 92.809 55.6687C94.5703 56.0043 96.1353 57.0039 97.1804 58.4608C98.2255 59.9176 98.6709 61.7204 98.4244 63.4964C98.1778 65.2724 97.2583 66.8857 95.8559 68.0028V68.0045ZM63.9309 61.2851C64.1545 61.4178 64.4099 61.4879 64.67 61.4879C64.9301 61.4879 65.1854 61.4178 65.4091 61.2851C91.6523 45.7164 92.5583 30.9004 91.7302 25.2517C91.3154 22.0786 89.9633 19.1014 87.8469 16.701C85.7305 14.3007 82.9461 12.5863 79.8499 11.7773C79.4765 11.6844 79.0815 11.7436 78.7518 11.9419C78.4221 12.1403 78.1847 12.4614 78.0918 12.8348C77.9989 13.2082 78.0581 13.6032 78.2564 13.9329C78.4548 14.2626 78.7759 14.5 79.1493 14.5929C81.6856 15.265 83.964 16.678 85.6933 18.6514C87.4225 20.6248 88.5242 23.069 88.8574 25.6716C89.5928 30.6909 88.6785 43.8522 64.6654 58.3486C41.6882 44.4692 40.0014 31.6829 40.3541 26.797C40.4821 24.2956 41.3077 21.8799 42.7376 19.8234C44.1675 17.767 46.1445 16.1519 48.4449 15.161C48.8003 15.0143 49.0828 14.7324 49.2303 14.3774C49.3779 14.0224 49.3783 13.6233 49.2316 13.2679C49.0849 12.9126 48.803 12.63 48.448 12.4825C48.093 12.335 47.6939 12.3345 47.3385 12.4812C44.5395 13.6766 42.1313 15.632 40.3866 18.1259C38.6419 20.6198 37.6306 23.5524 37.4673 26.5916C36.6301 38.1655 46.2752 50.811 63.9309 61.2851ZM56.756 14.7403C59.3995 15.5611 61.7678 17.0902 63.6037 19.1617C63.7393 19.3084 63.9037 19.4255 64.0867 19.5056C64.2697 19.5857 64.4673 19.6271 64.6671 19.6271C64.8667 19.6271 65.0643 19.5859 65.2473 19.5059C65.4303 19.426 65.5947 19.3091 65.7304 19.1625C67.1692 17.5671 68.9156 16.279 70.8647 15.3755C71.2115 15.2156 71.4811 14.9254 71.6151 14.5679C71.749 14.2103 71.7365 13.8144 71.5801 13.466C71.4238 13.1177 71.1363 12.8451 70.7802 12.7076C70.424 12.57 70.0279 12.5785 69.678 12.7313C67.8305 13.5745 66.1364 14.7197 64.6654 16.12C62.6639 14.1902 60.2321 12.7641 57.5709 11.9595C57.3883 11.9058 57.1969 11.8885 57.0076 11.9088C56.8184 11.929 56.635 11.9863 56.4679 12.0775C56.1304 12.2615 55.8798 12.5721 55.7713 12.9408C55.6628 13.3096 55.7053 13.7063 55.8893 14.0438C56.0733 14.3813 56.3839 14.6318 56.7527 14.7403H56.756Z"/>
</mask>
<path d="M95.8559 68.0045L65.9258 91.8388C65.0938 92.4993 57.0191 93.9229 56.0544 94.3681C55.8816 94.4477 55.6947 94.4926 55.5045 94.5C55.3144 94.5074 55.1246 94.4774 54.946 94.4115C54.7674 94.3456 54.6036 94.2451 54.4639 94.1159C54.3241 93.9867 54.2112 93.8312 54.1315 93.6584C54.0519 93.4855 54.007 93.2986 53.9996 93.1085C53.9922 92.9183 54.0222 92.7285 54.0881 92.5499C54.154 92.3714 54.2545 92.2075 54.3837 92.0678C54.5129 91.928 54.6684 91.8151 54.8412 91.7355C55.5959 91.3873 63.4729 90.0855 64.1238 89.5689L94.0498 65.7371C94.8708 65.0828 95.409 64.138 95.5529 63.098C95.6968 62.0581 95.4355 61.0026 94.823 60.1499C94.2105 59.2973 93.2937 58.7126 92.2623 58.517C91.2308 58.3214 90.1636 58.5297 89.2814 59.0988L68.3605 72.5716C69.1917 73.6628 69.654 74.9902 69.6803 76.3616C69.7067 77.7331 69.2958 79.0773 68.5072 80.1996C67.7186 81.3219 66.5931 82.164 65.2939 82.604C63.9947 83.0439 62.5891 83.0588 61.2809 82.6466L41.0456 76.2833C40.6789 76.1679 40.3731 75.9115 40.1955 75.5706C40.0178 75.2297 39.9828 74.8322 40.0982 74.4655C40.2137 74.0989 40.47 73.793 40.8109 73.6154C41.1518 73.4377 41.5493 73.4027 41.916 73.5182L62.1487 79.8823C63.0054 80.152 63.9324 80.0887 64.7444 79.705C65.5565 79.3212 66.1939 78.6453 66.5294 77.8122C66.865 76.9791 66.8739 76.05 66.5545 75.2106C66.235 74.3712 65.6107 73.6831 64.8062 73.2838L64.7664 73.2623L42.6795 62.4138C39.6454 60.924 36.3234 60.1126 32.9441 60.036C29.5649 59.9593 26.2094 60.6193 23.1109 61.97L10.1855 67.6054V88.7573L13.0467 86.8071C16.4619 84.4785 20.3954 83.0216 24.5035 82.5637C28.6116 82.1058 32.7694 82.6608 36.6135 84.1803L55.7028 91.7281C56.0602 91.8696 56.3469 92.1472 56.4996 92.5C56.6523 92.8528 56.6587 93.2518 56.5173 93.6092C56.3758 93.9667 56.0982 94.2533 55.7454 94.406C55.3926 94.5588 54.9936 94.5651 54.6362 94.4237L35.5485 86.8758C32.1444 85.5307 28.4627 85.0395 24.825 85.445C21.1873 85.8504 17.7042 87.1404 14.6798 89.202L9.55286 92.6967C9.33513 92.8455 9.0809 92.9321 8.81759 92.947C8.55428 92.962 8.29189 92.9048 8.05872 92.7815C7.82555 92.6583 7.63045 92.4737 7.49447 92.2478C7.35849 92.0218 7.28679 91.763 7.28711 91.4992V66.6555C7.28781 66.374 7.37049 66.0987 7.52506 65.8634C7.67962 65.6281 7.89937 65.4429 8.15747 65.3305L21.954 59.3183C25.4378 57.7992 29.2104 57.0568 33.01 57.1426C36.8096 57.2284 40.5449 58.1404 43.9565 59.8152L66.0061 70.6388L87.7171 56.6575C89.2247 55.6871 91.0477 55.3331 92.809 55.6687C94.5703 56.0043 96.1353 57.0039 97.1804 58.4608C98.2255 59.9176 98.6709 61.7204 98.4244 63.4964C98.1778 65.2724 97.2583 66.8857 95.8559 68.0028V68.0045ZM63.9309 61.2851C64.1545 61.4178 64.4099 61.4879 64.67 61.4879C64.9301 61.4879 65.1854 61.4178 65.4091 61.2851C91.6523 45.7164 92.5583 30.9004 91.7302 25.2517C91.3154 22.0786 89.9633 19.1014 87.8469 16.701C85.7305 14.3007 82.9461 12.5863 79.8499 11.7773C79.4765 11.6844 79.0815 11.7436 78.7518 11.9419C78.4221 12.1403 78.1847 12.4614 78.0918 12.8348C77.9989 13.2082 78.0581 13.6032 78.2564 13.9329C78.4548 14.2626 78.7759 14.5 79.1493 14.5929C81.6856 15.265 83.964 16.678 85.6933 18.6514C87.4225 20.6248 88.5242 23.069 88.8574 25.6716C89.5928 30.6909 88.6785 43.8522 64.6654 58.3486C41.6882 44.4692 40.0014 31.6829 40.3541 26.797C40.4821 24.2956 41.3077 21.8799 42.7376 19.8234C44.1675 17.767 46.1445 16.1519 48.4449 15.161C48.8003 15.0143 49.0828 14.7324 49.2303 14.3774C49.3779 14.0224 49.3783 13.6233 49.2316 13.2679C49.0849 12.9126 48.803 12.63 48.448 12.4825C48.093 12.335 47.6939 12.3345 47.3385 12.4812C44.5395 13.6766 42.1313 15.632 40.3866 18.1259C38.6419 20.6198 37.6306 23.5524 37.4673 26.5916C36.6301 38.1655 46.2752 50.811 63.9309 61.2851ZM56.756 14.7403C59.3995 15.5611 61.7678 17.0902 63.6037 19.1617C63.7393 19.3084 63.9037 19.4255 64.0867 19.5056C64.2697 19.5857 64.4673 19.6271 64.6671 19.6271C64.8667 19.6271 65.0643 19.5859 65.2473 19.5059C65.4303 19.426 65.5947 19.3091 65.7304 19.1625C67.1692 17.5671 68.9156 16.279 70.8647 15.3755C71.2115 15.2156 71.4811 14.9254 71.6151 14.5679C71.749 14.2103 71.7365 13.8144 71.5801 13.466C71.4238 13.1177 71.1363 12.8451 70.7802 12.7076C70.424 12.57 70.0279 12.5785 69.678 12.7313C67.8305 13.5745 66.1364 14.7197 64.6654 16.12C62.6639 14.1902 60.2321 12.7641 57.5709 11.9595C57.3883 11.9058 57.1969 11.8885 57.0076 11.9088C56.8184 11.929 56.635 11.9863 56.4679 12.0775C56.1304 12.2615 55.8798 12.5721 55.7713 12.9408C55.6628 13.3096 55.7053 13.7063 55.8893 14.0438C56.0733 14.3813 56.3839 14.6318 56.7527 14.7403H56.756Z" fill="white"/>
<path d="M95.8559 68.0045L65.9258 91.8388C65.0938 92.4993 57.0191 93.9229 56.0544 94.3681C55.8816 94.4477 55.6947 94.4926 55.5045 94.5C55.3144 94.5074 55.1246 94.4774 54.946 94.4115C54.7674 94.3456 54.6036 94.2451 54.4639 94.1159C54.3241 93.9867 54.2112 93.8312 54.1315 93.6584C54.0519 93.4855 54.007 93.2986 53.9996 93.1085C53.9922 92.9183 54.0222 92.7285 54.0881 92.5499C54.154 92.3714 54.2545 92.2075 54.3837 92.0678C54.5129 91.928 54.6684 91.8151 54.8412 91.7355C55.5959 91.3873 63.4729 90.0855 64.1238 89.5689L94.0498 65.7371C94.8708 65.0828 95.409 64.138 95.5529 63.098C95.6968 62.0581 95.4355 61.0026 94.823 60.1499C94.2105 59.2973 93.2937 58.7126 92.2623 58.517C91.2308 58.3214 90.1636 58.5297 89.2814 59.0988L68.3605 72.5716C69.1917 73.6628 69.654 74.9902 69.6803 76.3616C69.7067 77.7331 69.2958 79.0773 68.5072 80.1996C67.7186 81.3219 66.5931 82.164 65.2939 82.604C63.9947 83.0439 62.5891 83.0588 61.2809 82.6466L41.0456 76.2833C40.6789 76.1679 40.3731 75.9115 40.1955 75.5706C40.0178 75.2297 39.9828 74.8322 40.0982 74.4655C40.2137 74.0989 40.47 73.793 40.8109 73.6154C41.1518 73.4377 41.5493 73.4027 41.916 73.5182L62.1487 79.8823C63.0054 80.152 63.9324 80.0887 64.7444 79.705C65.5565 79.3212 66.1939 78.6453 66.5294 77.8122C66.865 76.9791 66.8739 76.05 66.5545 75.2106C66.235 74.3712 65.6107 73.6831 64.8062 73.2838L64.7664 73.2623L42.6795 62.4138C39.6454 60.924 36.3234 60.1126 32.9441 60.036C29.5649 59.9593 26.2094 60.6193 23.1109 61.97L10.1855 67.6054V88.7573L13.0467 86.8071C16.4619 84.4785 20.3954 83.0216 24.5035 82.5637C28.6116 82.1058 32.7694 82.6608 36.6135 84.1803L55.7028 91.7281C56.0602 91.8696 56.3469 92.1472 56.4996 92.5C56.6523 92.8528 56.6587 93.2518 56.5173 93.6092C56.3758 93.9667 56.0982 94.2533 55.7454 94.406C55.3926 94.5588 54.9936 94.5651 54.6362 94.4237L35.5485 86.8758C32.1444 85.5307 28.4627 85.0395 24.825 85.445C21.1873 85.8504 17.7042 87.1404 14.6798 89.202L9.55286 92.6967C9.33513 92.8455 9.0809 92.9321 8.81759 92.947C8.55428 92.962 8.29189 92.9048 8.05872 92.7815C7.82555 92.6583 7.63045 92.4737 7.49447 92.2478C7.35849 92.0218 7.28679 91.763 7.28711 91.4992V66.6555C7.28781 66.374 7.37049 66.0987 7.52506 65.8634C7.67962 65.6281 7.89937 65.4429 8.15747 65.3305L21.954 59.3183C25.4378 57.7992 29.2104 57.0568 33.01 57.1426C36.8096 57.2284 40.5449 58.1404 43.9565 59.8152L66.0061 70.6388L87.7171 56.6575C89.2247 55.6871 91.0477 55.3331 92.809 55.6687C94.5703 56.0043 96.1353 57.0039 97.1804 58.4608C98.2255 59.9176 98.6709 61.7204 98.4244 63.4964C98.1778 65.2724 97.2583 66.8857 95.8559 68.0028V68.0045ZM63.9309 61.2851C64.1545 61.4178 64.4099 61.4879 64.67 61.4879C64.9301 61.4879 65.1854 61.4178 65.4091 61.2851C91.6523 45.7164 92.5583 30.9004 91.7302 25.2517C91.3154 22.0786 89.9633 19.1014 87.8469 16.701C85.7305 14.3007 82.9461 12.5863 79.8499 11.7773C79.4765 11.6844 79.0815 11.7436 78.7518 11.9419C78.4221 12.1403 78.1847 12.4614 78.0918 12.8348C77.9989 13.2082 78.0581 13.6032 78.2564 13.9329C78.4548 14.2626 78.7759 14.5 79.1493 14.5929C81.6856 15.265 83.964 16.678 85.6933 18.6514C87.4225 20.6248 88.5242 23.069 88.8574 25.6716C89.5928 30.6909 88.6785 43.8522 64.6654 58.3486C41.6882 44.4692 40.0014 31.6829 40.3541 26.797C40.4821 24.2956 41.3077 21.8799 42.7376 19.8234C44.1675 17.767 46.1445 16.1519 48.4449 15.161C48.8003 15.0143 49.0828 14.7324 49.2303 14.3774C49.3779 14.0224 49.3783 13.6233 49.2316 13.2679C49.0849 12.9126 48.803 12.63 48.448 12.4825C48.093 12.335 47.6939 12.3345 47.3385 12.4812C44.5395 13.6766 42.1313 15.632 40.3866 18.1259C38.6419 20.6198 37.6306 23.5524 37.4673 26.5916C36.6301 38.1655 46.2752 50.811 63.9309 61.2851ZM56.756 14.7403C59.3995 15.5611 61.7678 17.0902 63.6037 19.1617C63.7393 19.3084 63.9037 19.4255 64.0867 19.5056C64.2697 19.5857 64.4673 19.6271 64.6671 19.6271C64.8667 19.6271 65.0643 19.5859 65.2473 19.5059C65.4303 19.426 65.5947 19.3091 65.7304 19.1625C67.1692 17.5671 68.9156 16.279 70.8647 15.3755C71.2115 15.2156 71.4811 14.9254 71.6151 14.5679C71.749 14.2103 71.7365 13.8144 71.5801 13.466C71.4238 13.1177 71.1363 12.8451 70.7802 12.7076C70.424 12.57 70.0279 12.5785 69.678 12.7313C67.8305 13.5745 66.1364 14.7197 64.6654 16.12C62.6639 14.1902 60.2321 12.7641 57.5709 11.9595C57.3883 11.9058 57.1969 11.8885 57.0076 11.9088C56.8184 11.929 56.635 11.9863 56.4679 12.0775C56.1304 12.2615 55.8798 12.5721 55.7713 12.9408C55.6628 13.3096 55.7053 13.7063 55.8893 14.0438C56.0733 14.3813 56.3839 14.6318 56.7527 14.7403H56.756Z" stroke="white" stroke-width="2" mask="url(#path-1-outside-1)"/>
</svg>
