<svg width="94" height="86" viewBox="0 0 94 86" fill="none" xmlns="http://www.w3.org/2000/svg">
<mask id="path-1-outside-1" maskUnits="userSpaceOnUse" x="0.287498" y="0.734375" width="94" height="85" fill="black">
<rect fill="white" x="0.287498" y="0.734375" width="94" height="85"/>
<path d="M89.8563 58.0045L59.9262 81.8388C59.0941 82.4993 51.0195 83.9229 50.0548 84.3681C49.882 84.4477 49.6951 84.4926 49.5049 84.5C49.3147 84.5074 49.125 84.4774 48.9464 84.4115C48.7678 84.3456 48.604 84.2451 48.4643 84.1159C48.3245 83.9867 48.2116 83.8312 48.1319 83.6584C48.0523 83.4855 48.0074 83.2986 48 83.1085C47.9925 82.9183 48.0226 82.7285 48.0885 82.5499C48.1544 82.3714 48.2549 82.2075 48.3841 82.0678C48.5133 81.928 48.6688 81.8151 48.8416 81.7355C49.5962 81.3873 57.4733 80.0855 58.1242 79.5689L88.0501 55.7371C88.8712 55.0828 89.4094 54.138 89.5533 53.098C89.6972 52.0581 89.4359 51.0026 88.8234 50.1499C88.2109 49.2973 87.2941 48.7126 86.2627 48.517C85.2312 48.3214 84.164 48.5297 83.2818 49.0988L62.3609 62.5716C63.1921 63.6628 63.6544 64.9902 63.6807 66.3616C63.7071 67.7331 63.2962 69.0773 62.5076 70.1996C61.7189 71.3219 60.5935 72.164 59.2943 72.604C57.9951 73.0439 56.5895 73.0588 55.2812 72.6466L35.046 66.2833C34.6793 66.1679 34.3735 65.9115 34.1959 65.5706C34.0182 65.2297 33.9832 64.8322 34.0986 64.4655C34.2141 64.0989 34.4704 63.793 34.8113 63.6154C35.1522 63.4377 35.5497 63.4027 35.9164 63.5182L56.1491 69.8823C57.0058 70.152 57.9327 70.0887 58.7448 69.705C59.5569 69.3212 60.1943 68.6453 60.5298 67.8122C60.8654 66.9791 60.8743 66.05 60.5548 65.2106C60.2354 64.3712 59.6111 63.6831 58.8066 63.2838L58.7668 63.2623L36.6799 52.4138C33.6458 50.924 30.3238 50.1126 26.9445 50.036C23.5653 49.9593 20.2098 50.6193 17.1113 51.97L4.18594 57.6054V78.7573L7.04711 76.8071C10.4623 74.4785 14.3958 73.0216 18.5039 72.5637C22.612 72.1058 26.7698 72.6608 30.6139 74.1803L49.7032 81.7281C50.0606 81.8696 50.3473 82.1472 50.5 82.5C50.6527 82.8528 50.6591 83.2518 50.5176 83.6092C50.3762 83.9667 50.0985 84.2533 49.7458 84.406C49.393 84.5588 48.994 84.5651 48.6366 84.4237L29.5489 76.8758C26.1448 75.5307 22.4631 75.0395 18.8254 75.445C15.1877 75.8504 11.7046 77.1404 8.68017 79.202L3.55325 82.6967C3.33552 82.8455 3.08129 82.9321 2.81798 82.947C2.55467 82.962 2.29228 82.9048 2.05911 82.7815C1.82594 82.6583 1.63084 82.4737 1.49486 82.2478C1.35888 82.0218 1.28718 81.763 1.2875 81.4992V56.6555C1.2882 56.374 1.37088 56.0987 1.52544 55.8634C1.68001 55.6281 1.89976 55.4429 2.15786 55.3305L15.9544 49.3183C19.4381 47.7992 23.2108 47.0568 27.0104 47.1426C30.8099 47.2284 34.5453 48.1404 37.9569 49.8152L60.0065 60.6388L81.7175 46.6575C83.2251 45.6871 85.0481 45.3331 86.8094 45.6687C88.5707 46.0043 90.1357 47.0039 91.1808 48.4608C92.2259 49.9176 92.6713 51.7204 92.4248 53.4964C92.1782 55.2724 91.2587 56.8857 89.8563 58.0028V58.0045ZM57.9312 51.2851C58.1549 51.4178 58.4102 51.4879 58.6703 51.4879C58.9305 51.4879 59.1858 51.4178 59.4094 51.2851C85.6527 35.7164 86.5587 20.9004 85.7306 15.2517C85.3157 12.0786 83.9636 9.10139 81.8473 6.70102C79.7309 4.30066 76.9465 2.5863 73.8503 1.77731C73.4769 1.6844 73.0819 1.74362 72.7522 1.94195C72.4225 2.14027 72.1851 2.46145 72.0922 2.83482C71.9993 3.2082 72.0585 3.60319 72.2568 3.9329C72.4551 4.2626 72.7763 4.50003 73.1497 4.59293C75.686 5.26499 77.9644 6.678 79.6937 8.6514C81.4229 10.6248 82.5246 13.069 82.8578 15.6716C83.5932 20.6909 82.6789 33.8522 58.6658 48.3486C35.6886 34.4692 34.0017 21.6829 34.3545 16.797C34.4825 14.2956 35.3081 11.8799 36.738 9.82344C38.1679 7.76699 40.1449 6.15191 42.4453 5.16102C42.8007 5.01431 43.0832 4.73244 43.2307 4.37741C43.3783 4.02239 43.3787 3.6233 43.232 3.26793C43.0853 2.91256 42.8034 2.63004 42.4484 2.4825C42.0934 2.33496 41.6943 2.3345 41.3389 2.48121C38.5399 3.67656 36.1316 5.63196 34.387 8.12586C32.6423 10.6198 31.631 13.5524 31.4677 16.5916C30.6304 28.1655 40.2756 40.811 57.9312 51.2851ZM50.7564 4.74034C53.3999 5.56109 55.7682 7.09019 57.6041 9.1617C57.7397 9.30844 57.9041 9.42554 58.0871 9.50564C58.2701 9.58574 58.4677 9.62709 58.6674 9.6271C58.8671 9.62715 59.0647 9.5859 59.2477 9.50595C59.4306 9.426 59.5951 9.30908 59.7308 9.16252C61.1696 7.56713 62.916 6.279 64.8651 5.37551C65.2119 5.21565 65.4815 4.92542 65.6155 4.56788C65.7494 4.21034 65.7369 3.81438 65.5805 3.46605C65.4242 3.11771 65.1367 2.84514 64.7806 2.70756C64.4244 2.56999 64.0283 2.57852 63.6784 2.73131C61.8309 3.57447 60.1368 4.71973 58.6658 6.11999C56.6643 4.19022 54.2325 2.76415 51.5712 1.95949C51.3886 1.90577 51.1973 1.88854 51.008 1.90878C50.8188 1.92902 50.6353 1.98634 50.4682 2.07747C50.1308 2.2615 49.8802 2.57206 49.7717 2.94082C49.6632 3.30958 49.7057 3.70634 49.8897 4.04382C50.0737 4.38129 50.3843 4.63184 50.7531 4.74034H50.7564Z"/>
</mask>
<path d="M89.8563 58.0045L59.9262 81.8388C59.0941 82.4993 51.0195 83.9229 50.0548 84.3681C49.882 84.4477 49.6951 84.4926 49.5049 84.5C49.3147 84.5074 49.125 84.4774 48.9464 84.4115C48.7678 84.3456 48.604 84.2451 48.4643 84.1159C48.3245 83.9867 48.2116 83.8312 48.1319 83.6584C48.0523 83.4855 48.0074 83.2986 48 83.1085C47.9925 82.9183 48.0226 82.7285 48.0885 82.5499C48.1544 82.3714 48.2549 82.2075 48.3841 82.0678C48.5133 81.928 48.6688 81.8151 48.8416 81.7355C49.5962 81.3873 57.4733 80.0855 58.1242 79.5689L88.0501 55.7371C88.8712 55.0828 89.4094 54.138 89.5533 53.098C89.6972 52.0581 89.4359 51.0026 88.8234 50.1499C88.2109 49.2973 87.2941 48.7126 86.2627 48.517C85.2312 48.3214 84.164 48.5297 83.2818 49.0988L62.3609 62.5716C63.1921 63.6628 63.6544 64.9902 63.6807 66.3616C63.7071 67.7331 63.2962 69.0773 62.5076 70.1996C61.7189 71.3219 60.5935 72.164 59.2943 72.604C57.9951 73.0439 56.5895 73.0588 55.2812 72.6466L35.046 66.2833C34.6793 66.1679 34.3735 65.9115 34.1959 65.5706C34.0182 65.2297 33.9832 64.8322 34.0986 64.4655C34.2141 64.0989 34.4704 63.793 34.8113 63.6154C35.1522 63.4377 35.5497 63.4027 35.9164 63.5182L56.1491 69.8823C57.0058 70.152 57.9327 70.0887 58.7448 69.705C59.5569 69.3212 60.1943 68.6453 60.5298 67.8122C60.8654 66.9791 60.8743 66.05 60.5548 65.2106C60.2354 64.3712 59.6111 63.6831 58.8066 63.2838L58.7668 63.2623L36.6799 52.4138C33.6458 50.924 30.3238 50.1126 26.9445 50.036C23.5653 49.9593 20.2098 50.6193 17.1113 51.97L4.18594 57.6054V78.7573L7.04711 76.8071C10.4623 74.4785 14.3958 73.0216 18.5039 72.5637C22.612 72.1058 26.7698 72.6608 30.6139 74.1803L49.7032 81.7281C50.0606 81.8696 50.3473 82.1472 50.5 82.5C50.6527 82.8528 50.6591 83.2518 50.5176 83.6092C50.3762 83.9667 50.0985 84.2533 49.7458 84.406C49.393 84.5588 48.994 84.5651 48.6366 84.4237L29.5489 76.8758C26.1448 75.5307 22.4631 75.0395 18.8254 75.445C15.1877 75.8504 11.7046 77.1404 8.68017 79.202L3.55325 82.6967C3.33552 82.8455 3.08129 82.9321 2.81798 82.947C2.55467 82.962 2.29228 82.9048 2.05911 82.7815C1.82594 82.6583 1.63084 82.4737 1.49486 82.2478C1.35888 82.0218 1.28718 81.763 1.2875 81.4992V56.6555C1.2882 56.374 1.37088 56.0987 1.52544 55.8634C1.68001 55.6281 1.89976 55.4429 2.15786 55.3305L15.9544 49.3183C19.4381 47.7992 23.2108 47.0568 27.0104 47.1426C30.8099 47.2284 34.5453 48.1404 37.9569 49.8152L60.0065 60.6388L81.7175 46.6575C83.2251 45.6871 85.0481 45.3331 86.8094 45.6687C88.5707 46.0043 90.1357 47.0039 91.1808 48.4608C92.2259 49.9176 92.6713 51.7204 92.4248 53.4964C92.1782 55.2724 91.2587 56.8857 89.8563 58.0028V58.0045ZM57.9312 51.2851C58.1549 51.4178 58.4102 51.4879 58.6703 51.4879C58.9305 51.4879 59.1858 51.4178 59.4094 51.2851C85.6527 35.7164 86.5587 20.9004 85.7306 15.2517C85.3157 12.0786 83.9636 9.10139 81.8473 6.70102C79.7309 4.30066 76.9465 2.5863 73.8503 1.77731C73.4769 1.6844 73.0819 1.74362 72.7522 1.94195C72.4225 2.14027 72.1851 2.46145 72.0922 2.83482C71.9993 3.2082 72.0585 3.60319 72.2568 3.9329C72.4551 4.2626 72.7763 4.50003 73.1497 4.59293C75.686 5.26499 77.9644 6.678 79.6937 8.6514C81.4229 10.6248 82.5246 13.069 82.8578 15.6716C83.5932 20.6909 82.6789 33.8522 58.6658 48.3486C35.6886 34.4692 34.0017 21.6829 34.3545 16.797C34.4825 14.2956 35.3081 11.8799 36.738 9.82344C38.1679 7.76699 40.1449 6.15191 42.4453 5.16102C42.8007 5.01431 43.0832 4.73244 43.2307 4.37741C43.3783 4.02239 43.3787 3.6233 43.232 3.26793C43.0853 2.91256 42.8034 2.63004 42.4484 2.4825C42.0934 2.33496 41.6943 2.3345 41.3389 2.48121C38.5399 3.67656 36.1316 5.63196 34.387 8.12586C32.6423 10.6198 31.631 13.5524 31.4677 16.5916C30.6304 28.1655 40.2756 40.811 57.9312 51.2851ZM50.7564 4.74034C53.3999 5.56109 55.7682 7.09019 57.6041 9.1617C57.7397 9.30844 57.9041 9.42554 58.0871 9.50564C58.2701 9.58574 58.4677 9.62709 58.6674 9.6271C58.8671 9.62715 59.0647 9.5859 59.2477 9.50595C59.4306 9.426 59.5951 9.30908 59.7308 9.16252C61.1696 7.56713 62.916 6.279 64.8651 5.37551C65.2119 5.21565 65.4815 4.92542 65.6155 4.56788C65.7494 4.21034 65.7369 3.81438 65.5805 3.46605C65.4242 3.11771 65.1367 2.84514 64.7806 2.70756C64.4244 2.56999 64.0283 2.57852 63.6784 2.73131C61.8309 3.57447 60.1368 4.71973 58.6658 6.11999C56.6643 4.19022 54.2325 2.76415 51.5712 1.95949C51.3886 1.90577 51.1973 1.88854 51.008 1.90878C50.8188 1.92902 50.6353 1.98634 50.4682 2.07747C50.1308 2.2615 49.8802 2.57206 49.7717 2.94082C49.6632 3.30958 49.7057 3.70634 49.8897 4.04382C50.0737 4.38129 50.3843 4.63184 50.7531 4.74034H50.7564Z" fill="black"/>
<path d="M89.8563 58.0045L59.9262 81.8388C59.0941 82.4993 51.0195 83.9229 50.0548 84.3681C49.882 84.4477 49.6951 84.4926 49.5049 84.5C49.3147 84.5074 49.125 84.4774 48.9464 84.4115C48.7678 84.3456 48.604 84.2451 48.4643 84.1159C48.3245 83.9867 48.2116 83.8312 48.1319 83.6584C48.0523 83.4855 48.0074 83.2986 48 83.1085C47.9925 82.9183 48.0226 82.7285 48.0885 82.5499C48.1544 82.3714 48.2549 82.2075 48.3841 82.0678C48.5133 81.928 48.6688 81.8151 48.8416 81.7355C49.5962 81.3873 57.4733 80.0855 58.1242 79.5689L88.0501 55.7371C88.8712 55.0828 89.4094 54.138 89.5533 53.098C89.6972 52.0581 89.4359 51.0026 88.8234 50.1499C88.2109 49.2973 87.2941 48.7126 86.2627 48.517C85.2312 48.3214 84.164 48.5297 83.2818 49.0988L62.3609 62.5716C63.1921 63.6628 63.6544 64.9902 63.6807 66.3616C63.7071 67.7331 63.2962 69.0773 62.5076 70.1996C61.7189 71.3219 60.5935 72.164 59.2943 72.604C57.9951 73.0439 56.5895 73.0588 55.2812 72.6466L35.046 66.2833C34.6793 66.1679 34.3735 65.9115 34.1959 65.5706C34.0182 65.2297 33.9832 64.8322 34.0986 64.4655C34.2141 64.0989 34.4704 63.793 34.8113 63.6154C35.1522 63.4377 35.5497 63.4027 35.9164 63.5182L56.1491 69.8823C57.0058 70.152 57.9327 70.0887 58.7448 69.705C59.5569 69.3212 60.1943 68.6453 60.5298 67.8122C60.8654 66.9791 60.8743 66.05 60.5548 65.2106C60.2354 64.3712 59.6111 63.6831 58.8066 63.2838L58.7668 63.2623L36.6799 52.4138C33.6458 50.924 30.3238 50.1126 26.9445 50.036C23.5653 49.9593 20.2098 50.6193 17.1113 51.97L4.18594 57.6054V78.7573L7.04711 76.8071C10.4623 74.4785 14.3958 73.0216 18.5039 72.5637C22.612 72.1058 26.7698 72.6608 30.6139 74.1803L49.7032 81.7281C50.0606 81.8696 50.3473 82.1472 50.5 82.5C50.6527 82.8528 50.6591 83.2518 50.5176 83.6092C50.3762 83.9667 50.0985 84.2533 49.7458 84.406C49.393 84.5588 48.994 84.5651 48.6366 84.4237L29.5489 76.8758C26.1448 75.5307 22.4631 75.0395 18.8254 75.445C15.1877 75.8504 11.7046 77.1404 8.68017 79.202L3.55325 82.6967C3.33552 82.8455 3.08129 82.9321 2.81798 82.947C2.55467 82.962 2.29228 82.9048 2.05911 82.7815C1.82594 82.6583 1.63084 82.4737 1.49486 82.2478C1.35888 82.0218 1.28718 81.763 1.2875 81.4992V56.6555C1.2882 56.374 1.37088 56.0987 1.52544 55.8634C1.68001 55.6281 1.89976 55.4429 2.15786 55.3305L15.9544 49.3183C19.4381 47.7992 23.2108 47.0568 27.0104 47.1426C30.8099 47.2284 34.5453 48.1404 37.9569 49.8152L60.0065 60.6388L81.7175 46.6575C83.2251 45.6871 85.0481 45.3331 86.8094 45.6687C88.5707 46.0043 90.1357 47.0039 91.1808 48.4608C92.2259 49.9176 92.6713 51.7204 92.4248 53.4964C92.1782 55.2724 91.2587 56.8857 89.8563 58.0028V58.0045ZM57.9312 51.2851C58.1549 51.4178 58.4102 51.4879 58.6703 51.4879C58.9305 51.4879 59.1858 51.4178 59.4094 51.2851C85.6527 35.7164 86.5587 20.9004 85.7306 15.2517C85.3157 12.0786 83.9636 9.10139 81.8473 6.70102C79.7309 4.30066 76.9465 2.5863 73.8503 1.77731C73.4769 1.6844 73.0819 1.74362 72.7522 1.94195C72.4225 2.14027 72.1851 2.46145 72.0922 2.83482C71.9993 3.2082 72.0585 3.60319 72.2568 3.9329C72.4551 4.2626 72.7763 4.50003 73.1497 4.59293C75.686 5.26499 77.9644 6.678 79.6937 8.6514C81.4229 10.6248 82.5246 13.069 82.8578 15.6716C83.5932 20.6909 82.6789 33.8522 58.6658 48.3486C35.6886 34.4692 34.0017 21.6829 34.3545 16.797C34.4825 14.2956 35.3081 11.8799 36.738 9.82344C38.1679 7.76699 40.1449 6.15191 42.4453 5.16102C42.8007 5.01431 43.0832 4.73244 43.2307 4.37741C43.3783 4.02239 43.3787 3.6233 43.232 3.26793C43.0853 2.91256 42.8034 2.63004 42.4484 2.4825C42.0934 2.33496 41.6943 2.3345 41.3389 2.48121C38.5399 3.67656 36.1316 5.63196 34.387 8.12586C32.6423 10.6198 31.631 13.5524 31.4677 16.5916C30.6304 28.1655 40.2756 40.811 57.9312 51.2851ZM50.7564 4.74034C53.3999 5.56109 55.7682 7.09019 57.6041 9.1617C57.7397 9.30844 57.9041 9.42554 58.0871 9.50564C58.2701 9.58574 58.4677 9.62709 58.6674 9.6271C58.8671 9.62715 59.0647 9.5859 59.2477 9.50595C59.4306 9.426 59.5951 9.30908 59.7308 9.16252C61.1696 7.56713 62.916 6.279 64.8651 5.37551C65.2119 5.21565 65.4815 4.92542 65.6155 4.56788C65.7494 4.21034 65.7369 3.81438 65.5805 3.46605C65.4242 3.11771 65.1367 2.84514 64.7806 2.70756C64.4244 2.56999 64.0283 2.57852 63.6784 2.73131C61.8309 3.57447 60.1368 4.71973 58.6658 6.11999C56.6643 4.19022 54.2325 2.76415 51.5712 1.95949C51.3886 1.90577 51.1973 1.88854 51.008 1.90878C50.8188 1.92902 50.6353 1.98634 50.4682 2.07747C50.1308 2.2615 49.8802 2.57206 49.7717 2.94082C49.6632 3.30958 49.7057 3.70634 49.8897 4.04382C50.0737 4.38129 50.3843 4.63184 50.7531 4.74034H50.7564Z" stroke="black" stroke-width="2" mask="url(#path-1-outside-1)"/>
</svg>
