<svg width="25" height="15" viewBox="0 0 25 15" fill="none" xmlns="http://www.w3.org/2000/svg">
<path d="M12.5 9.06746L20.3175 1.24996C20.7313 0.838651 21.291 0.607788 21.8744 0.607788C22.4578 0.607788 23.0175 0.838651 23.4313 1.24996C23.6382 1.45525 23.8025 1.69949 23.9146 1.9686C24.0268 2.2377 24.0845 2.52635 24.0845 2.81787C24.0845 3.1094 24.0268 3.39804 23.9146 3.66715C23.8025 3.93625 23.6382 4.1805 23.4313 4.38579L14.0679 13.7491C13.8626 13.9561 13.6184 14.1204 13.3493 14.2325C13.0802 14.3446 12.7915 14.4023 12.5 14.4023C12.2085 14.4023 11.9198 14.3446 11.6507 14.2325C11.3816 14.1204 11.1374 13.9561 10.9321 13.7491L1.45833 4.38579C1.25366 4.17944 1.09174 3.93472 0.98184 3.66567C0.871943 3.39661 0.816235 3.1085 0.817915 2.81787C0.816235 2.52724 0.871943 2.23914 0.98184 1.97008C1.09174 1.70102 1.25366 1.4563 1.45833 1.24995C1.87209 0.83865 2.4318 0.607788 3.01521 0.607788C3.59862 0.607788 4.15833 0.83865 4.57208 1.24995L12.5 9.06746Z" fill="black" fill-opacity="0.74"/>
</svg>
