<svg width="25" height="15" viewBox="0 0 25 15" fill="none" xmlns="http://www.w3.org/2000/svg">
<path d="M12.4995 9.06746L20.317 1.24996C20.7308 0.838651 21.2905 0.607788 21.8739 0.607788C22.4573 0.607788 23.017 0.838651 23.4308 1.24996C23.6377 1.45525 23.802 1.69949 23.9141 1.9686C24.0263 2.2377 24.084 2.52635 24.084 2.81787C24.084 3.1094 24.0263 3.39804 23.9141 3.66715C23.802 3.93625 23.6377 4.1805 23.4308 4.38579L14.0674 13.7491C13.8621 13.9561 13.6179 14.1204 13.3488 14.2325C13.0797 14.3446 12.791 14.4023 12.4995 14.4023C12.208 14.4023 11.9193 14.3446 11.6502 14.2325C11.3811 14.1204 11.1369 13.9561 10.9316 13.7491L1.45785 4.38579C1.25317 4.17944 1.09125 3.93472 0.981352 3.66567C0.871454 3.39661 0.815746 3.1085 0.817427 2.81787C0.815746 2.52724 0.871454 2.23914 0.981352 1.97008C1.09125 1.70102 1.25317 1.4563 1.45785 1.24995C1.87161 0.83865 2.43131 0.607788 3.01472 0.607788C3.59813 0.607788 4.15784 0.83865 4.57159 1.24995L12.4995 9.06746Z" fill="white" fill-opacity="0.74"/>
</svg>
