<svg xmlns="http://www.w3.org/2000/svg" viewBox="0 0 61.2 61"><defs><style>.cls-1{fill:#656565;}</style></defs><g id="Layer_2" data-name="Layer 2"><g id="Layer_1-2" data-name="Layer 1"><path class="cls-1" d="M59.8,24.8c-2.4-4.9-4.2-10-6.5-14.9a5.34,5.34,0,0,0-3-2.9c-3.9-1.7-8-3-11.9-4.8A26.11,26.11,0,0,0,31.7.1h-.2a1.27,1.27,0,0,1-.6-.1H29a22,22,0,0,0-4.4,1.2C19.8,3.6,14.8,5.3,10,7.6a5.85,5.85,0,0,0-3,3c-1.7,3.9-3,8-4.8,11.9A26.11,26.11,0,0,0,.1,29.2v.2A1.27,1.27,0,0,1,0,30v2c.4,1.3.4,2.8,1,4.1C3.4,41,5.2,46.1,7.5,51a6.25,6.25,0,0,0,3,3c3.9,1.7,8,3,11.9,4.8a26.11,26.11,0,0,0,6.7,2.1h.6c.1,0,.1,0,.2.1H32a29.24,29.24,0,0,0,4-1c4.9-2.4,10-4.2,14.9-6.5A5.87,5.87,0,0,0,54,50.4c1.3-2.9,2.3-5.9,3.6-9s2.9-6,3.3-9.4a.1.1,0,0,1,.1-.1v-.1h0a.75.75,0,0,1,.1-.5.1.1,0,0,1,.1-.1V29.4C60.4,27.7,60.4,26.2,59.8,24.8ZM49.4,49.1l-18.9,8-19-7.7-8-18.9,7.6-19L30,3.5l19,7.6L57,30Z"/><path class="cls-1" d="M21.2,43V38.9L29.1,30l-8-8.3v-4H39.4a18.6,18.6,0,0,1,.1,4.1H27.2A99.54,99.54,0,0,0,34.9,30l-8,8.9H39.4a29.44,29.44,0,0,1,0,4.2H21.2Z"/></g></g></svg>