<svg width="19" height="18" viewBox="0 0 19 18" fill="none" xmlns="http://www.w3.org/2000/svg">
<path d="M4.9329 10.4661C3.89297 10.4688 2.865 10.2382 1.91975 9.79022C1.79668 9.73249 1.66078 9.71181 1.52735 9.73024C1.3938 9.74868 1.26736 9.80566 1.16255 9.89538L1.16263 9.89547L1.15805 9.89909C1.0441 9.98921 0.957758 10.1129 0.910727 10.2549C0.863684 10.397 0.858309 10.5506 0.895372 10.6959L0.895876 10.6981C1.25234 12.186 1.96806 13.5552 2.97528 14.6772C3.98247 15.7991 5.24802 16.6369 6.65277 17.1125C8.05749 17.5881 9.55571 17.686 11.0068 17.3971C12.458 17.1082 13.8149 16.4419 14.95 15.4602C16.0851 14.4786 16.9612 13.2137 17.4954 11.7841C18.0295 10.3545 18.2041 8.8075 18.0026 7.28857C17.801 5.76965 17.23 4.32914 16.3436 3.10229C15.4583 1.87694 14.2876 0.905057 12.9415 0.277159C12.8226 0.232279 12.6946 0.22064 12.5702 0.243292C12.4442 0.266238 12.3258 0.323659 12.2274 0.410255C12.1289 0.496886 12.054 0.609637 12.011 0.737221C11.9683 0.863785 11.9586 0.999961 11.983 1.13178C12.1264 1.73493 12.2009 2.35341 12.205 2.97452L12.205 2.97638C12.1932 4.96376 11.4234 6.86674 10.0617 8.27014C8.69985 9.67366 6.85639 10.4637 4.9329 10.4661ZM4.9329 10.4661L4.9325 10.3161L4.93269 10.4661C4.93276 10.4661 4.93283 10.4661 4.9329 10.4661ZM13.5592 14.5889C12.3798 15.4622 10.9757 15.9503 9.5275 15.9916V16.0303L9.3777 16.0305C8.0572 16.0322 6.76167 15.6604 5.63091 14.9558C4.5002 14.2512 3.57738 13.2406 2.9614 12.0337L2.81639 11.7496L3.12771 11.8191C3.72057 11.9515 4.32549 12.0172 4.93193 12.0149H4.93235C7.24331 12.0125 9.46008 11.0607 11.0958 9.36653C12.7318 7.67217 13.6527 5.37372 13.655 2.97535V2.73081V2.40958L13.9013 2.6158C15.0672 3.59195 15.9124 4.91681 16.3223 6.4085C16.7322 7.90016 16.687 9.4865 16.1926 10.9506C15.6983 12.4147 14.7788 13.6856 13.5592 14.5889Z" fill="black" stroke="#FFF7F6" stroke-width="0.3"/>
</svg>
