<svg width="26" height="13" viewBox="0 0 26 13" fill="none" xmlns="http://www.w3.org/2000/svg">
<path d="M1.3 2.6H24.7C25.0448 2.6 25.3754 2.46304 25.6192 2.21924C25.863 1.97544 26 1.64478 26 1.3C26 0.955218 25.863 0.624559 25.6192 0.380761C25.3754 0.136964 25.0448 0 24.7 0H1.3C0.955218 0 0.624558 0.136964 0.380761 0.380761C0.136964 0.624559 0 0.955218 0 1.3C0 1.64478 0.136964 1.97544 0.380761 2.21924C0.624558 2.46304 0.955218 2.6 1.3 2.6ZM24.7 10.4H1.3C0.955218 10.4 0.624558 10.537 0.380761 10.7808C0.136964 11.0246 0 11.3552 0 11.7C0 12.0448 0.136964 12.3754 0.380761 12.6192C0.624558 12.863 0.955218 13 1.3 13H24.7C25.0448 13 25.3754 12.863 25.6192 12.6192C25.863 12.3754 26 12.0448 26 11.7C26 11.3552 25.863 11.0246 25.6192 10.7808C25.3754 10.537 25.0448 10.4 24.7 10.4ZM24.7 5.2H1.3C0.955218 5.2 0.624558 5.33696 0.380761 5.58076C0.136964 5.82456 0 6.15522 0 6.5C0 6.84478 0.136964 7.17544 0.380761 7.41924C0.624558 7.66304 0.955218 7.8 1.3 7.8H24.7C25.0448 7.8 25.3754 7.66304 25.6192 7.41924C25.863 7.17544 26 6.84478 26 6.5C26 6.15522 25.863 5.82456 25.6192 5.58076C25.3754 5.33696 25.0448 5.2 24.7 5.2Z" fill="white"/>
</svg>
