<svg width="51" height="51" viewBox="0 0 51 51" fill="none" xmlns="http://www.w3.org/2000/svg">
<path d="M32.2792 26.3542L24.9896 33.6437C24.7349 33.8985 24.5918 34.2439 24.5918 34.6042C24.5918 34.9644 24.7349 35.3098 24.9896 35.5646C25.2443 35.8193 25.5898 35.9624 25.95 35.9624C26.3103 35.9624 26.6557 35.8193 26.9105 35.5646L36.5146 25.9604C36.6386 25.8334 36.7365 25.6833 36.8027 25.5186C36.9399 25.1865 36.9399 24.8135 36.8027 24.4814C36.7365 24.3167 36.6386 24.1666 36.5146 24.0396L26.9105 14.4354C26.6557 14.1807 26.3103 14.0376 25.95 14.0376C25.5898 14.0376 25.2443 14.1807 24.9896 14.4354C24.7349 14.6902 24.5918 15.0356 24.5918 15.3958C24.5918 15.7561 24.7349 16.1015 24.9896 16.3563L32.2792 23.6458L16.3459 23.6362C16.1666 23.6355 15.9889 23.6702 15.8231 23.7385C15.6573 23.8068 15.5067 23.9072 15.3799 24.034C15.2531 24.1608 15.1527 24.3114 15.0844 24.4772C15.0161 24.643 14.9814 24.8207 14.9821 25C14.9814 25.1793 15.0161 25.357 15.0844 25.5228C15.1527 25.6886 15.2531 25.8392 15.3799 25.966C15.5067 26.0928 15.6573 26.1932 15.8231 26.2615C15.9889 26.3298 16.1666 26.3645 16.3459 26.3638L32.2792 26.3542Z" fill="black" fill-opacity="0.64"/>
<circle cx="25.5" cy="25.5" r="25" stroke="black" stroke-opacity="0.64"/>
</svg>
