<svg width="51" height="51" viewBox="0 0 51 51" fill="none" xmlns="http://www.w3.org/2000/svg">
<path d="M32.2788 26.3542L24.9892 33.6437C24.7345 33.8985 24.5914 34.2439 24.5914 34.6042C24.5914 34.9644 24.7345 35.3098 24.9892 35.5646C25.2439 35.8193 25.5894 35.9624 25.9496 35.9624C26.3099 35.9624 26.6553 35.8193 26.91 35.5646L36.5142 25.9604C36.6382 25.8334 36.7361 25.6833 36.8023 25.5186C36.9395 25.1865 36.9395 24.8135 36.8023 24.4814C36.7361 24.3167 36.6382 24.1666 36.5142 24.0396L26.91 14.4354C26.6553 14.1807 26.3099 14.0376 25.9496 14.0376C25.5894 14.0376 25.2439 14.1807 24.9892 14.4354C24.7345 14.6902 24.5914 15.0356 24.5914 15.3958C24.5914 15.7561 24.7345 16.1015 24.9892 16.3563L32.2788 23.6458L16.3455 23.6362C16.1662 23.6355 15.9885 23.6702 15.8227 23.7385C15.6569 23.8068 15.5063 23.9072 15.3795 24.034C15.2527 24.1608 15.1523 24.3114 15.084 24.4772C15.0157 24.643 14.981 24.8207 14.9817 25C14.981 25.1793 15.0157 25.357 15.084 25.5228C15.1523 25.6886 15.2527 25.8392 15.3795 25.966C15.5063 26.0928 15.6569 26.1932 15.8227 26.2615C15.9885 26.3298 16.1662 26.3645 16.3455 26.3638L32.2788 26.3542Z" fill="white" fill-opacity="0.8"/>
<circle cx="25.5" cy="25.5" r="25" stroke="white" stroke-opacity="0.8"/>
</svg>
