<svg width="38" height="38" viewBox="0 0 38 38" fill="none" xmlns="http://www.w3.org/2000/svg">
<path d="M24.8742 17.8752C25.0183 18.0258 25.1313 18.2033 25.2067 18.3977C25.365 18.7832 25.365 19.2155 25.2067 19.601C25.1313 19.7954 25.0183 19.9729 24.8742 20.1235L20.1242 24.8735C19.826 25.1717 19.4216 25.3392 19 25.3392C18.5784 25.3392 18.174 25.1717 17.8758 24.8735C17.5777 24.5754 17.4102 24.171 17.4102 23.7493C17.4102 23.3277 17.5777 22.9233 17.8758 22.6252L19.9342 20.5827H14.25C13.8301 20.5827 13.4273 20.4159 13.1304 20.1189C12.8335 19.822 12.6667 19.4193 12.6667 18.9993C12.6667 18.5794 12.8335 18.1767 13.1304 17.8798C13.4273 17.5828 13.8301 17.416 14.25 17.416H19.9342L17.8758 15.3735C17.7274 15.2263 17.6096 15.0512 17.5293 14.8583C17.4489 14.6653 17.4075 14.4584 17.4075 14.2493C17.4075 14.0403 17.4489 13.8334 17.5293 13.6404C17.6096 13.4475 17.7274 13.2724 17.8758 13.1252C18.023 12.9768 18.1981 12.859 18.3911 12.7786C18.584 12.6982 18.791 12.6568 19 12.6568C19.209 12.6568 19.416 12.6982 19.6089 12.7786C19.8019 12.859 19.977 12.9768 20.1242 13.1252L24.8742 17.8752ZM34.8333 18.9993C34.8333 22.1309 33.9047 25.1921 32.1649 27.7959C30.4251 30.3997 27.9523 32.4291 25.0592 33.6274C22.166 34.8258 18.9824 35.1394 15.9111 34.5285C12.8397 33.9175 10.0185 32.4095 7.80414 30.1952C5.58981 27.9809 4.08183 25.1596 3.4709 22.0883C2.85997 19.0169 3.17352 15.8334 4.37191 12.9402C5.5703 10.047 7.5997 7.5742 10.2035 5.83441C12.8073 4.09462 15.8685 3.16602 19 3.16602C21.0793 3.16602 23.1382 3.57556 25.0592 4.37126C26.9801 5.16696 28.7256 6.33323 30.1959 7.80349C33.1652 10.7728 34.8333 14.8001 34.8333 18.9993ZM6.33334 18.9993C6.33334 21.5046 7.07622 23.9535 8.46805 26.0366C9.85989 28.1196 11.8381 29.7431 14.1527 30.7018C16.4672 31.6605 19.0141 31.9114 21.4711 31.4226C23.9282 30.9339 26.1852 29.7275 27.9567 27.956C29.7282 26.1846 30.9345 23.9276 31.4233 21.4705C31.912 19.0134 31.6612 16.4666 30.7025 14.152C29.7438 11.8375 28.1202 9.85923 26.0372 8.4674C23.9542 7.07557 21.5052 6.33268 19 6.33268C15.6406 6.33268 12.4188 7.6672 10.0433 10.0427C7.66785 12.4181 6.33334 15.6399 6.33334 18.9993Z" fill="black" fill-opacity="0.6"/>
</svg>
