<svg width="38" height="38" viewBox="0 0 38 38" fill="none" xmlns="http://www.w3.org/2000/svg">
<path d="M24.8748 17.8752C25.019 18.0258 25.132 18.2033 25.2073 18.3977C25.3657 18.7832 25.3657 19.2155 25.2073 19.601C25.132 19.7954 25.019 19.9729 24.8748 20.1235L20.1248 24.8735C19.8267 25.1717 19.4223 25.3392 19.0007 25.3392C18.579 25.3392 18.1746 25.1717 17.8765 24.8735C17.5783 24.5754 17.4108 24.171 17.4108 23.7493C17.4108 23.3277 17.5783 22.9233 17.8765 22.6252L19.9348 20.5827H14.2507C13.8307 20.5827 13.428 20.4159 13.1311 20.1189C12.8341 19.822 12.6673 19.4193 12.6673 18.9993C12.6673 18.5794 12.8341 18.1767 13.1311 17.8798C13.428 17.5828 13.8307 17.416 14.2507 17.416H19.9348L17.8765 15.3735C17.7281 15.2263 17.6103 15.0512 17.5299 14.8583C17.4495 14.6653 17.4081 14.4584 17.4081 14.2493C17.4081 14.0403 17.4495 13.8334 17.5299 13.6404C17.6103 13.4475 17.7281 13.2724 17.8765 13.1252C18.0237 12.9768 18.1988 12.859 18.3917 12.7786C18.5847 12.6982 18.7916 12.6568 19.0007 12.6568C19.2097 12.6568 19.4166 12.6982 19.6096 12.7786C19.8025 12.859 19.9776 12.9768 20.1248 13.1252L24.8748 17.8752ZM34.834 18.9993C34.834 22.1309 33.9054 25.1921 32.1656 27.7959C30.4258 30.3997 27.953 32.4291 25.0598 33.6274C22.1666 34.8258 18.9831 35.1394 15.9117 34.5285C12.8404 33.9175 10.0191 32.4095 7.80479 30.1952C5.59046 27.9809 4.08248 25.1596 3.47155 22.0883C2.86062 19.0169 3.17417 15.8334 4.37256 12.9402C5.57094 10.047 7.60034 7.5742 10.2041 5.83441C12.8079 4.09462 15.8691 3.16602 19.0007 3.16602C21.0799 3.16602 23.1388 3.57556 25.0598 4.37126C26.9808 5.16696 28.7262 6.33323 30.1965 7.80349C33.1658 10.7728 34.834 14.8001 34.834 18.9993ZM6.33398 18.9993C6.33398 21.5046 7.07687 23.9535 8.4687 26.0366C9.86053 28.1196 11.8388 29.7431 14.1533 30.7018C16.4679 31.6605 19.0147 31.9114 21.4718 31.4226C23.9289 30.9339 26.1859 29.7275 27.9573 27.956C29.7288 26.1846 30.9352 23.9276 31.4239 21.4705C31.9127 19.0134 31.6618 16.4666 30.7031 14.152C29.7444 11.8375 28.1209 9.85923 26.0379 8.4674C23.9549 7.07557 21.5059 6.33268 19.0007 6.33268C15.6412 6.33268 12.4194 7.6672 10.044 10.0427C7.6685 12.4181 6.33398 15.6399 6.33398 18.9993Z" fill="white" fill-opacity="0.6"/>
</svg>
