<svg width="48" height="48" viewBox="0 0 48 48" fill="none" xmlns="http://www.w3.org/2000/svg">
<path d="M11.9496 25.2501C12.13 25.1009 12.3487 25.0054 12.5808 24.9745C12.8128 24.9436 13.0489 24.9784 13.2621 25.0751C14.5839 25.6799 16.021 25.9912 17.4746 25.9876C20.1635 25.9843 22.7421 24.9181 24.6482 23.0214C26.5542 21.1248 27.6331 18.5515 27.6496 15.8626C27.6439 15.0199 27.539 14.1808 27.3371 13.3626C27.2942 13.1445 27.3103 12.9189 27.3836 12.7091C27.457 12.4993 27.5849 12.3129 27.7543 12.169C27.9237 12.0251 28.1283 11.9289 28.3472 11.8905C28.5661 11.852 28.7913 11.8726 28.9996 11.9501C30.9592 12.8312 32.6626 14.196 33.9499 15.9163C35.2372 17.6366 36.066 19.6558 36.3585 21.7844C36.6511 23.913 36.3977 26.081 35.6222 28.0848C34.8468 30.0885 33.5747 31.8623 31.9255 33.2394C30.2762 34.6165 28.304 35.5518 26.194 35.9573C24.0841 36.3629 21.9056 36.2254 19.8634 35.5579C17.8212 34.8903 15.9821 33.7145 14.5191 32.141C13.056 30.5675 12.017 28.6479 11.4996 26.5626C11.4366 26.3238 11.4457 26.0717 11.5258 25.8382C11.6058 25.6046 11.7533 25.3999 11.9496 25.2501ZM23.8246 33.6126C25.9224 33.5978 27.9643 32.9349 29.6708 31.7147C31.3774 30.4946 32.665 28.7767 33.3575 26.7965C34.05 24.8162 34.1134 22.6703 33.5392 20.6526C32.9649 18.6348 31.781 16.8439 30.1496 15.5251V15.8626C30.1463 19.2232 28.8098 22.4452 26.4335 24.8215C24.0572 27.1978 20.8352 28.5343 17.4746 28.5376C16.5922 28.5408 15.7121 28.4486 14.8496 28.2626C15.7122 29.8945 17.004 31.2599 18.5856 32.2115C20.1673 33.1631 21.9787 33.6649 23.8246 33.6626V33.6126Z" fill="white"/>
<rect x="0.5" y="0.5" width="47" height="47" rx="7.5" stroke="white"/>
</svg>
