<svg width="48" height="48" viewBox="0 0 48 48" fill="none" xmlns="http://www.w3.org/2000/svg">
<path d="M11.95 25.2501C12.1305 25.1009 12.3491 25.0054 12.5812 24.9745C12.8132 24.9436 13.0493 24.9784 13.2625 25.0751C14.5843 25.6799 16.0214 25.9912 17.475 25.9876C20.1639 25.9843 22.7425 24.9181 24.6486 23.0214C26.5546 21.1248 27.6335 18.5515 27.65 15.8626C27.6443 15.0199 27.5394 14.1808 27.3375 13.3626C27.2947 13.1445 27.3107 12.9189 27.3841 12.7091C27.4574 12.4993 27.5853 12.3129 27.7547 12.169C27.9241 12.0251 28.1288 11.9289 28.3476 11.8905C28.5665 11.852 28.7917 11.8726 29 11.9501C30.9596 12.8312 32.6631 14.196 33.9503 15.9163C35.2376 17.6366 36.0664 19.6558 36.359 21.7844C36.6515 23.913 36.3981 26.081 35.6227 28.0848C34.8472 30.0885 33.5751 31.8623 31.9259 33.2394C30.2767 34.6165 28.3044 35.5518 26.1945 35.9573C24.0845 36.3629 21.9061 36.2254 19.8638 35.5579C17.8216 34.8903 15.9826 33.7145 14.5195 32.141C13.0565 30.5675 12.0174 28.6479 11.5 26.5626C11.437 26.3238 11.4461 26.0717 11.5262 25.8382C11.6063 25.6046 11.7538 25.3999 11.95 25.2501ZM23.825 33.6126C25.9228 33.5978 27.9648 32.9349 29.6713 31.7147C31.3778 30.4946 32.6654 28.7767 33.3579 26.7965C34.0504 24.8162 34.1138 22.6703 33.5396 20.6526C32.9653 18.6348 31.7814 16.8439 30.15 15.5251V15.8626C30.1467 19.2232 28.8102 22.4452 26.4339 24.8215C24.0576 27.1978 20.8356 28.5343 17.475 28.5376C16.5927 28.5408 15.7125 28.4486 14.85 28.2626C15.7126 29.8945 17.0044 31.2599 18.5861 32.2115C20.1677 33.1631 21.9792 33.6649 23.825 33.6626V33.6126Z" fill="black"/>
<rect x="0.5" y="0.5" width="47" height="47" rx="7.5" stroke="black"/>
</svg>
