<svg width="103" height="103" viewBox="0 0 103 103" fill="none" xmlns="http://www.w3.org/2000/svg">
<path d="M84.9958 54.4395C84.1679 54.4395 83.4968 55.1106 83.4968 55.9384C83.4968 56.9879 82.6431 57.8417 81.5935 57.8417C80.5442 57.8417 79.6902 56.9879 79.6902 55.9384C79.6902 55.1104 79.0191 54.4395 78.1913 54.4395C77.3635 54.4395 76.6924 55.1106 76.6924 55.9384C76.6924 58.6409 78.8912 60.8395 81.5935 60.8395C84.2959 60.8395 86.4947 58.6407 86.4947 55.9384C86.4947 55.1102 85.8236 54.4395 84.9958 54.4395Z" fill="black"/>
<path d="M99.0659 54.6849L94.8469 53.3334C94.3066 53.1602 93.8807 52.7289 93.7079 52.1795C92.8187 49.3524 91.4769 46.6983 89.7196 44.2907C88.9188 43.1933 88.0282 42.1454 87.0553 41.1478C87.6777 38.4173 88.0161 35.3271 87.9723 32.6573C87.9095 28.8381 87.1462 26.598 85.6391 25.8086C84.8273 25.383 82.3569 24.0898 68.9857 30.2107C68.669 30.3555 68.3733 30.534 68.0995 30.7384C67.198 30.4961 66.2767 30.272 65.3497 30.0709C65.238 30.0465 65.123 30.025 65.0105 30.0013C66.094 27.6343 66.7267 25.0635 66.8456 22.4096C66.8826 21.5824 66.2423 20.8819 65.4151 20.8451C64.5901 20.8041 63.8874 21.4482 63.8505 22.2755C63.6552 26.6391 61.8451 30.7448 58.7539 33.8362C56.9069 35.6832 54.7443 37.0248 52.4395 37.8697C48.4424 37.3088 44.3711 37.3088 40.374 37.8697C38.069 37.0248 35.9066 35.6832 34.0596 33.8362C30.7616 30.5382 28.9452 26.1532 28.9452 21.4891C28.9452 16.8247 30.7616 12.44 34.0596 9.14196C37.3576 5.84374 41.7428 4.02736 46.4067 4.02736C51.0707 4.02736 55.4558 5.84374 58.7539 9.14196C60.0792 10.4673 61.1744 11.9797 62.009 13.6367C62.3814 14.3762 63.2828 14.674 64.0221 14.3014C64.7617 13.9292 65.0592 13.0278 64.6868 12.2885C63.7085 10.3454 62.4256 8.57364 60.874 7.0218C57.0097 3.15749 51.8718 1.0293 46.4069 1.0293C40.9421 1.0293 35.8042 3.15749 31.9399 7.0218C28.0755 10.8863 25.9473 16.024 25.9473 21.4889C25.9473 26.9537 28.0755 32.0916 31.9399 35.956C33.0546 37.0706 34.2672 38.0292 35.5499 38.8323C35.5503 38.8323 35.5507 38.8321 35.5511 38.8321C34.6191 39.0743 33.6941 39.3463 32.7793 39.6521C31.9942 39.9146 31.5705 40.7638 31.833 41.5491C32.0954 42.3343 32.9449 42.758 33.7299 42.4956C41.9047 39.7627 50.9092 39.7627 59.084 42.4956C59.2417 42.5484 59.4018 42.5733 59.5593 42.5733C60.1864 42.5733 60.771 42.1766 60.9808 41.5491C61.2434 40.764 60.8197 39.9146 60.0345 39.6521C59.1198 39.3463 58.1948 39.0741 57.2628 38.8321C57.2632 38.8321 57.2636 38.8323 57.264 38.8323C58.5469 38.0292 59.7593 37.0706 60.874 35.956C61.8601 34.9698 62.7306 33.8929 63.4864 32.7485C63.8996 32.8287 64.3098 32.9128 64.714 33.0005C65.2523 33.1174 65.7882 33.2429 66.3193 33.3747C66.3026 33.4399 66.2855 33.5049 66.2717 33.5711C65.5406 37.0403 65.5881 40.1085 66.4127 42.6902C67.1538 45.0107 68.4914 46.8906 70.3878 48.2781C72.623 49.9133 75.3216 50.6196 77.766 50.6196C79.6057 50.6196 81.3018 50.2192 82.5475 49.5137C83.9565 48.7157 85.1369 47.0341 86.0714 44.5094C86.5033 45.0135 86.9127 45.5299 87.2985 46.0586C88.8631 48.2019 90.0574 50.564 90.8484 53.0791C91.3129 54.5563 92.466 55.7187 93.9328 56.1888L98.1518 57.5403C99.2588 57.895 100.003 58.9139 100.003 60.0763V67.072C100.003 68.2344 99.2588 69.2533 98.1518 69.608L91.3544 71.7853C90.2668 72.1339 89.3465 72.8812 88.7629 73.8899C86.0923 78.5052 81.8936 82.3245 76.2828 85.2417C75.6346 85.579 75.1856 86.1823 75.0504 86.8973L72.8733 98.425C72.8131 98.7427 72.5349 98.973 72.2116 98.973H65.133C64.8097 98.973 64.5315 98.7425 64.4714 98.425L63.2655 92.0541C63.0282 90.8006 61.8525 89.968 60.5871 90.1597C57.538 90.6208 54.3961 90.8543 51.2491 90.8543C48.9079 90.8543 46.5966 90.7238 44.3791 90.4661C43.153 90.3251 42.0107 91.1609 41.7816 92.3716L40.6357 98.425C40.5756 98.7427 40.2973 98.973 39.9741 98.973H32.8954C32.5721 98.973 32.2939 98.7425 32.233 98.4202L30.1368 87.5324C30.0018 86.8309 29.5612 86.2344 28.9273 85.8959C19.3628 80.7899 14.3073 72.2594 14.3073 61.2272C14.3073 55.6531 15.5268 50.7242 17.9319 46.5768C20.1761 42.7065 23.454 39.5064 27.6744 37.0652C28.391 36.6506 28.6358 35.7337 28.2214 35.0169C27.807 34.3003 26.89 34.0559 26.1733 34.4699C17.9898 39.2039 13.054 46.5072 11.6951 55.7833V55.7831C11.5509 55.77 11.4064 55.7575 11.2626 55.7426C11.2888 54.7418 11.1077 53.7319 10.7134 52.7518C9.84374 50.59 8.05734 49.0297 6.1621 48.7768C4.6686 48.5769 3.24732 49.211 2.26097 50.5142C0.83084 52.404 1.064 53.8995 1.5112 54.8213C2.2662 56.3769 4.20691 57.4773 7.42747 58.1692C7.33895 58.3017 7.24158 58.4349 7.13496 58.5687C5.23208 60.9552 2.99022 61.4829 1.53454 61.5325C0.682375 61.5613 0 62.2455 0 63.0983V63.1055C0 63.9466 0.663666 64.6326 1.50396 64.671C1.61159 64.6761 1.72404 64.6787 1.84113 64.6787C3.68305 64.6787 6.63928 63.9993 9.47942 60.438C9.92783 59.8759 10.2932 59.2828 10.574 58.6701C10.8568 58.7021 11.1286 58.7294 11.3889 58.7536C11.3889 58.753 11.3889 58.7526 11.3891 58.7519C11.338 59.5643 11.3097 60.3885 11.3097 61.2272C11.3097 67.4691 12.7978 73.0345 15.7322 77.7695C18.438 82.135 22.312 85.7094 27.2503 88.3974L29.2882 98.9823C29.6159 100.714 31.133 101.971 32.8954 101.971H39.9741C41.7365 101.971 43.2536 100.714 43.5813 98.9823L44.6173 93.5088C46.769 93.7367 48.9968 93.8522 51.2489 93.8522C54.3389 93.8522 57.4253 93.637 60.4332 93.2121L61.5254 98.9827C61.8533 100.714 63.3703 101.971 65.1326 101.971H72.2113C73.9737 101.971 75.4908 100.714 75.8187 98.9819L77.9384 87.7583C83.9269 84.5917 88.4408 80.4318 91.3574 75.3913C91.5676 75.028 91.8913 74.7614 92.2687 74.6405L99.0659 72.4632C101.419 71.709 103 69.5426 103 67.0716V60.0759C103 57.6051 101.419 55.4386 99.0659 54.6849ZM84.7493 36.8697C84.1723 41.8036 82.6247 46.0242 81.0696 46.9049C79.3022 47.9062 75.2214 48.0995 72.1575 45.8582C69.0901 43.6144 68.0691 39.5793 69.2047 34.1891C69.2047 34.1889 69.2047 34.1889 69.2047 34.1889C69.3188 33.6475 69.7034 33.1792 70.2335 32.9366C77.738 29.5014 82.0646 28.3778 83.672 28.3778C83.9146 28.3778 84.0953 28.4034 84.2156 28.4504C84.6984 28.965 85.3317 31.8903 84.7493 36.8697ZM4.20872 53.5122C4.05361 53.1924 4.41975 52.6301 4.6519 52.3231C5.01984 51.8371 5.35882 51.7377 5.61491 51.7377C5.66902 51.7377 5.71952 51.7421 5.76579 51.7483C6.455 51.8403 7.42063 52.5987 7.93221 53.8703C8.05271 54.1697 8.20922 54.6655 8.24583 55.2839C6.17075 54.854 4.55855 54.2342 4.20872 53.5122Z" fill="black"/>
<path d="M47.8623 19.771V14.407C49.7121 14.5391 50.3993 15.3847 51.0334 15.3847C51.8262 15.3847 52.1962 14.3806 52.1962 13.8785C52.1962 12.5835 49.6592 12.0287 47.8623 11.9758V11.262C47.8623 10.945 47.4658 10.6543 47.0695 10.6543C46.6201 10.6543 46.3031 10.945 46.3031 11.262V12.0283C43.7926 12.2926 41.2822 13.6139 41.2822 16.9435C41.2822 20.326 43.9248 21.2774 46.3031 22.1229V28.3329C43.6076 28.1215 42.8942 26.2717 42.0221 26.2717C41.3615 26.2717 40.8066 27.1438 40.8066 27.778C40.8066 29.0728 43.0264 30.8433 46.3031 30.8962V31.7154C46.3031 32.0324 46.6203 32.3231 47.0695 32.3231C47.466 32.3231 47.8623 32.0324 47.8623 31.7154V30.817C50.7164 30.4204 52.6718 28.6236 52.6718 25.3732C52.6718 21.7795 50.1613 20.6165 47.8623 19.771ZM46.4616 19.2691C45.061 18.7406 43.9248 18.1858 43.9248 16.6796C43.9248 15.3054 44.9818 14.6447 46.4616 14.4599V19.2691ZM47.7036 28.28V22.7043C48.9984 23.2591 50.029 23.999 50.029 25.6637C50.029 27.1703 49.1305 28.0158 47.7036 28.28Z" fill="black"/>
</svg>
