<svg width="51" height="51" viewBox="0 0 51 51" fill="none" xmlns="http://www.w3.org/2000/svg">
<path d="M18.7212 26.3542L26.0108 33.6437C26.2655 33.8985 26.4086 34.2439 26.4086 34.6042C26.4086 34.9644 26.2655 35.3098 26.0108 35.5646C25.7561 35.8193 25.4106 35.9624 25.0504 35.9624C24.6901 35.9624 24.3447 35.8193 24.09 35.5646L14.4858 25.9604C14.3618 25.8334 14.2639 25.6833 14.1977 25.5186C14.0605 25.1865 14.0605 24.8135 14.1977 24.4814C14.2639 24.3167 14.3618 24.1666 14.4858 24.0396L24.09 14.4354C24.3447 14.1807 24.6901 14.0376 25.0504 14.0376C25.4106 14.0376 25.7561 14.1807 26.0108 14.4354C26.2655 14.6902 26.4086 15.0356 26.4086 15.3958C26.4086 15.7561 26.2655 16.1015 26.0108 16.3563L18.7212 23.6458L34.6545 23.6362C34.8338 23.6355 35.0115 23.6702 35.1773 23.7385C35.3431 23.8068 35.4937 23.9072 35.6205 24.034C35.7473 24.1608 35.8477 24.3114 35.916 24.4772C35.9843 24.643 36.019 24.8207 36.0183 25C36.019 25.1793 35.9843 25.357 35.916 25.5228C35.8477 25.6886 35.7473 25.8392 35.6205 25.966C35.4937 26.0928 35.3431 26.1932 35.1773 26.2615C35.0115 26.3298 34.8338 26.3645 34.6545 26.3638L18.7212 26.3542Z" fill="white" fill-opacity="0.8"/>
<circle r="25" transform="matrix(-1 0 0 1 25.5 25.5)" stroke="white" stroke-opacity="0.8"/>
</svg>
