<svg width="38" height="38" viewBox="0 0 38 38" fill="none" xmlns="http://www.w3.org/2000/svg">
<path d="M13.1252 17.8752C12.981 18.0258 12.868 18.2033 12.7927 18.3977C12.6343 18.7832 12.6343 19.2155 12.7927 19.601C12.868 19.7954 12.981 19.9729 13.1252 20.1235L17.8752 24.8735C18.1733 25.1717 18.5777 25.3392 18.9993 25.3392C19.421 25.3392 19.8254 25.1717 20.1235 24.8735C20.4217 24.5754 20.5892 24.171 20.5892 23.7493C20.5892 23.3277 20.4217 22.9233 20.1235 22.6252L18.0652 20.5827H23.7493C24.1693 20.5827 24.572 20.4159 24.8689 20.1189C25.1659 19.822 25.3327 19.4193 25.3327 18.9993C25.3327 18.5794 25.1659 18.1767 24.8689 17.8798C24.572 17.5828 24.1693 17.416 23.7493 17.416H18.0652L20.1235 15.3735C20.2719 15.2263 20.3897 15.0512 20.4701 14.8583C20.5505 14.6653 20.5919 14.4584 20.5919 14.2493C20.5919 14.0403 20.5505 13.8334 20.4701 13.6404C20.3897 13.4475 20.2719 13.2724 20.1235 13.1252C19.9763 12.9768 19.8012 12.859 19.6083 12.7786C19.4153 12.6982 19.2084 12.6568 18.9993 12.6568C18.7903 12.6568 18.5834 12.6982 18.3904 12.7786C18.1975 12.859 18.0224 12.9768 17.8752 13.1252L13.1252 17.8752ZM3.16602 18.9993C3.16602 22.1309 4.09462 25.1921 5.83441 27.7959C7.5742 30.3997 10.047 32.4291 12.9402 33.6274C15.8334 34.8258 19.0169 35.1394 22.0883 34.5285C25.1596 33.9175 27.9809 32.4095 30.1952 30.1952C32.4095 27.9809 33.9175 25.1596 34.5285 22.0883C35.1394 19.0169 34.8258 15.8334 33.6274 12.9402C32.4291 10.047 30.3997 7.5742 27.7959 5.83441C25.1921 4.09462 22.1309 3.16602 18.9993 3.16602C16.9201 3.16602 14.8612 3.57556 12.9402 4.37126C11.0192 5.16696 9.27375 6.33323 7.80349 7.80349C4.83417 10.7728 3.16602 14.8001 3.16602 18.9993ZM31.666 18.9993C31.666 21.5046 30.9231 23.9535 29.5313 26.0366C28.1395 28.1196 26.1612 29.7431 23.8467 30.7018C21.5321 31.6605 18.9853 31.9114 16.5282 31.4226C14.0711 30.9339 11.8141 29.7275 10.0427 27.956C8.2712 26.1846 7.06482 23.9276 6.57607 21.4705C6.08732 19.0134 6.33817 16.4666 7.29688 14.152C8.25559 11.8375 9.8791 9.85923 11.9621 8.4674C14.0451 7.07557 16.4941 6.33268 18.9993 6.33268C22.3588 6.33268 25.5806 7.6672 27.956 10.0427C30.3315 12.4181 31.666 15.6399 31.666 18.9993Z" fill="white" fill-opacity="0.6"/>
</svg>
