<svg width="51" height="51" viewBox="0 0 51 51" fill="none" xmlns="http://www.w3.org/2000/svg">
<path d="M18.7208 26.3542L26.0104 33.6437C26.2651 33.8985 26.4082 34.2439 26.4082 34.6042C26.4082 34.9644 26.2651 35.3098 26.0104 35.5646C25.7557 35.8193 25.4102 35.9624 25.05 35.9624C24.6897 35.9624 24.3443 35.8193 24.0895 35.5646L14.4854 25.9604C14.3614 25.8334 14.2635 25.6833 14.1973 25.5186C14.0601 25.1865 14.0601 24.8135 14.1973 24.4814C14.2635 24.3167 14.3614 24.1666 14.4854 24.0396L24.0895 14.4354C24.3443 14.1807 24.6897 14.0376 25.05 14.0376C25.4102 14.0376 25.7557 14.1807 26.0104 14.4354C26.2651 14.6902 26.4082 15.0356 26.4082 15.3958C26.4082 15.7561 26.2651 16.1015 26.0104 16.3563L18.7208 23.6458L34.6541 23.6362C34.8334 23.6355 35.0111 23.6702 35.1769 23.7385C35.3427 23.8068 35.4933 23.9072 35.6201 24.034C35.7469 24.1608 35.8473 24.3114 35.9156 24.4772C35.9839 24.643 36.0186 24.8207 36.0179 25C36.0186 25.1793 35.9839 25.357 35.9156 25.5228C35.8473 25.6886 35.7469 25.8392 35.6201 25.966C35.4933 26.0928 35.3427 26.1932 35.1769 26.2615C35.0111 26.3298 34.8334 26.3645 34.6541 26.3638L18.7208 26.3542Z" fill="black" fill-opacity="0.64"/>
<circle r="25" transform="matrix(-1 0 0 1 25.5 25.5)" stroke="black" stroke-opacity="0.64"/>
</svg>
