<svg width="38" height="38" viewBox="0 0 38 38" fill="none" xmlns="http://www.w3.org/2000/svg">
<path d="M13.1258 17.8752C12.9817 18.0258 12.8687 18.2033 12.7933 18.3977C12.635 18.7832 12.635 19.2155 12.7933 19.601C12.8687 19.7954 12.9817 19.9729 13.1258 20.1235L17.8758 24.8735C18.174 25.1717 18.5783 25.3392 19 25.3392C19.4216 25.3392 19.826 25.1717 20.1242 24.8735C20.4223 24.5754 20.5898 24.171 20.5898 23.7493C20.5898 23.3277 20.4223 22.9233 20.1242 22.6252L18.0658 20.5827H23.75C24.1699 20.5827 24.5726 20.4159 24.8696 20.1189C25.1665 19.822 25.3333 19.4193 25.3333 18.9993C25.3333 18.5794 25.1665 18.1767 24.8696 17.8798C24.5726 17.5828 24.1699 17.416 23.75 17.416H18.0658L20.1242 15.3735C20.2726 15.2263 20.3904 15.0512 20.4707 14.8583C20.5511 14.6653 20.5925 14.4584 20.5925 14.2493C20.5925 14.0403 20.5511 13.8334 20.4707 13.6404C20.3904 13.4475 20.2726 13.2724 20.1242 13.1252C19.977 12.9768 19.8018 12.859 19.6089 12.7786C19.416 12.6982 19.209 12.6568 19 12.6568C18.791 12.6568 18.584 12.6982 18.3911 12.7786C18.1981 12.859 18.023 12.9768 17.8758 13.1252L13.1258 17.8752ZM3.16666 18.9993C3.16666 22.1309 4.09527 25.1921 5.83505 27.7959C7.57484 30.3997 10.0477 32.4291 12.9408 33.6274C15.834 34.8258 19.0176 35.1394 22.0889 34.5285C25.1603 33.9175 27.9815 32.4095 30.1958 30.1952C32.4102 27.9809 33.9182 25.1596 34.5291 22.0883C35.14 19.0169 34.8265 15.8334 33.6281 12.9402C32.4297 10.047 30.4003 7.5742 27.7965 5.83441C25.1927 4.09462 22.1315 3.16602 19 3.16602C16.9207 3.16602 14.8618 3.57556 12.9408 4.37126C11.0198 5.16696 9.27439 6.33323 7.80413 7.80349C4.83481 10.7728 3.16666 14.8001 3.16666 18.9993ZM31.6667 18.9993C31.6667 21.5046 30.9238 23.9535 29.5319 26.0366C28.1401 28.1196 26.1618 29.7431 23.8473 30.7018C21.5328 31.6605 18.9859 31.9114 16.5288 31.4226C14.0718 30.9339 11.8148 29.7275 10.0433 27.956C8.27184 26.1846 7.06546 23.9276 6.57671 21.4705C6.08796 19.0134 6.33881 16.4666 7.29752 14.152C8.25623 11.8375 9.87974 9.85923 11.9628 8.4674C14.0458 7.07557 16.4948 6.33268 19 6.33268C22.3594 6.33268 25.5812 7.6672 27.9567 10.0427C30.3321 12.4181 31.6667 15.6399 31.6667 18.9993Z" fill="black" fill-opacity="0.6"/>
</svg>
