<svg width="56" height="56" viewBox="0 0 56 56" fill="none" xmlns="http://www.w3.org/2000/svg">
<g filter="url(#filter0_d)">
<circle cx="28" cy="27" r="22" fill="white"/>
</g>
<path d="M35.879 19.848C35.879 21.3174 34.6878 22.5088 33.2182 22.5088C31.7486 22.5088 30.5574 21.3174 30.5574 19.848C30.5574 18.3785 31.7486 17.1871 33.2182 17.1871C34.6878 17.1871 35.879 18.3785 35.879 19.848Z" fill="black"/>
<path d="M33.2182 23.1228C31.4121 23.1228 29.9434 21.654 29.9434 19.848C29.9434 18.0419 31.4121 16.5731 33.2182 16.5731C35.0243 16.5731 36.4931 18.0419 36.4931 19.848C36.4931 21.654 35.0243 23.1228 33.2182 23.1228ZM33.2182 17.8012C32.0892 17.8012 31.1714 18.7198 31.1714 19.848C31.1714 20.9761 32.0892 21.8947 33.2182 21.8947C34.3472 21.8947 35.265 20.9761 35.265 19.848C35.265 18.7198 34.3472 17.8012 33.2182 17.8012Z" fill="black"/>
<path d="M35.879 32.9474C35.879 34.4169 34.6878 35.6082 33.2182 35.6082C31.7486 35.6082 30.5574 34.4169 30.5574 32.9474C30.5574 31.4779 31.7486 30.2866 33.2182 30.2866C34.6878 30.2866 35.879 31.4779 35.879 32.9474Z" fill="black"/>
<path d="M33.2182 36.2222C31.4121 36.2222 29.9434 34.7534 29.9434 32.9474C29.9434 31.1413 31.4121 29.6725 33.2182 29.6725C35.0243 29.6725 36.4931 31.1413 36.4931 32.9474C36.4931 34.7534 35.0243 36.2222 33.2182 36.2222ZM33.2182 30.9006C32.0892 30.9006 31.1714 31.8192 31.1714 32.9474C31.1714 34.0755 32.0892 34.9942 33.2182 34.9942C34.3472 34.9942 35.265 34.0755 35.265 32.9474C35.265 31.8192 34.3472 30.9006 33.2182 30.9006Z" fill="black"/>
<path d="M24.417 26.3977C24.417 27.8673 23.2257 29.0585 21.7562 29.0585C20.2867 29.0585 19.0954 27.8673 19.0954 26.3977C19.0954 24.9281 20.2867 23.7368 21.7562 23.7368C23.2257 23.7368 24.417 24.9281 24.417 26.3977Z" fill="black"/>
<path d="M21.7562 29.6725C19.9502 29.6725 18.4814 28.2037 18.4814 26.3977C18.4814 24.5916 19.9502 23.1228 21.7562 23.1228C23.5623 23.1228 25.0311 24.5916 25.0311 26.3977C25.0311 28.2037 23.5623 29.6725 21.7562 29.6725ZM21.7562 24.3509C20.6272 24.3509 19.7094 25.2695 19.7094 26.3977C19.7094 27.5258 20.6272 28.4444 21.7562 28.4444C22.8853 28.4444 23.803 27.5258 23.803 26.3977C23.803 25.2695 22.8853 24.3509 21.7562 24.3509Z" fill="black"/>
<path d="M23.6893 26.0048C23.4043 26.0048 23.1276 25.8565 22.9769 25.5913C22.7534 25.1992 22.891 24.6988 23.2831 24.4745L30.8799 20.1435C31.272 19.9184 31.7724 20.056 31.9967 20.4496C32.2203 20.8418 32.0827 21.3421 31.6905 21.5664L24.0935 25.8974C23.9658 25.9703 23.8267 26.0048 23.6893 26.0048Z" fill="black"/>
<path d="M31.2852 32.7592C31.1477 32.7592 31.0085 32.7247 30.8808 32.6518L23.2839 28.3208C22.8918 28.0973 22.7542 27.5971 22.9778 27.204C23.2004 26.8111 23.7014 26.6728 24.0945 26.8979L31.6914 31.2289C32.0836 31.4524 32.221 31.9526 31.9975 32.3457C31.8461 32.6109 31.5693 32.7592 31.2852 32.7592Z" fill="black"/>
<defs>
<filter id="filter0_d" x="0" y="0" width="56" height="56" filterUnits="userSpaceOnUse" color-interpolation-filters="sRGB">
<feFlood flood-opacity="0" result="BackgroundImageFix"/>
<feColorMatrix in="SourceAlpha" type="matrix" values="0 0 0 0 0 0 0 0 0 0 0 0 0 0 0 0 0 0 127 0" result="hardAlpha"/>
<feOffset dy="1"/>
<feGaussianBlur stdDeviation="3"/>
<feComposite in2="hardAlpha" operator="out"/>
<feColorMatrix type="matrix" values="0 0 0 0 0 0 0 0 0 0 0 0 0 0 0 0 0 0 0.25 0"/>
<feBlend mode="normal" in2="BackgroundImageFix" result="effect1_dropShadow"/>
<feBlend mode="normal" in="SourceGraphic" in2="effect1_dropShadow" result="shape"/>
</filter>
</defs>
</svg>
