<svg width="56" height="56" viewBox="0 0 56 56" fill="none" xmlns="http://www.w3.org/2000/svg">
<g filter="url(#filter0_d)">
<circle cx="28" cy="27" r="22" fill="white"/>
</g>
<g clip-path="url(#clip0)">
<path d="M16.3006 22.1599L23.2716 15.189C23.5232 14.9371 23.9318 14.9371 24.1835 15.189L24.213 15.2185C24.6405 15.6458 24.876 16.2142 24.876 16.8186C24.876 17.208 24.7771 17.5817 24.5933 17.9131L31.8872 24.1729C32.4454 23.674 33.1579 23.401 33.9126 23.401C34.7258 23.401 35.4903 23.7176 36.0652 24.2926L36.1089 24.3363C36.3608 24.5881 36.3608 24.9965 36.1089 25.2482L31.9327 29.4244L36 33.4916C36.0814 33.5753 38.0066 35.5592 39.2723 37.1379C40.4776 38.6409 40.716 38.9163 40.7284 38.9305C40.9521 39.1854 40.9398 39.5697 40.7002 39.8104C40.5747 39.9364 40.4093 40.0001 40.2433 40.0001C40.092 40.0001 39.9403 39.9472 39.8183 39.8406C39.8076 39.8313 39.5385 39.5975 38.0257 38.3845C36.4472 37.1188 34.4633 35.1935 34.3732 35.1057L30.3124 31.0449L26.3599 34.9975C26.234 35.1235 26.0689 35.1864 25.904 35.1864C25.739 35.1864 25.5738 35.1235 25.448 34.9975L25.4043 34.9537C24.8293 34.3789 24.5127 33.6143 24.5127 32.8012C24.5127 32.0465 24.7858 31.334 25.2846 30.7758L19.0247 23.4818C18.6934 23.6656 18.3197 23.7646 17.9303 23.7646C17.3258 23.7646 16.7575 23.5292 16.3302 23.1016L16.3006 23.0721C16.0487 22.82 16.0487 22.4117 16.3006 22.1599Z" fill="black"/>
</g>
<defs>
<filter id="filter0_d" x="0" y="0" width="56" height="56" filterUnits="userSpaceOnUse" color-interpolation-filters="sRGB">
<feFlood flood-opacity="0" result="BackgroundImageFix"/>
<feColorMatrix in="SourceAlpha" type="matrix" values="0 0 0 0 0 0 0 0 0 0 0 0 0 0 0 0 0 0 127 0" result="hardAlpha"/>
<feOffset dy="1"/>
<feGaussianBlur stdDeviation="3"/>
<feComposite in2="hardAlpha" operator="out"/>
<feColorMatrix type="matrix" values="0 0 0 0 0 0 0 0 0 0 0 0 0 0 0 0 0 0 0.25 0"/>
<feBlend mode="normal" in2="BackgroundImageFix" result="effect1_dropShadow"/>
<feBlend mode="normal" in="SourceGraphic" in2="effect1_dropShadow" result="shape"/>
</filter>
<clipPath id="clip0">
<rect width="25" height="25" fill="white" transform="matrix(-1 0 0 1 41 15)"/>
</clipPath>
</defs>
</svg>
