<svg width="87" height="61" viewBox="0 0 87 61" fill="none" xmlns="http://www.w3.org/2000/svg">
<path d="M84.0997 23.8903L85.1603 24.951L84.0997 23.8904C83.5761 24.4139 82.8661 24.708 82.1257 24.708C80.5896 24.708 79.1165 25.3182 78.0303 26.4043C76.9442 27.4905 76.334 28.9636 76.334 30.4997C76.334 32.0357 76.9442 33.5089 78.0303 34.595C79.1165 35.6812 80.5896 36.2913 82.1257 36.2913C82.8661 36.2913 83.5761 36.5855 84.0997 37.109C84.6232 37.6325 84.9173 38.3426 84.9173 39.083V56.2497C84.9173 56.9901 84.6232 57.7001 84.0997 58.2237C83.5761 58.7472 82.8661 59.0413 82.1257 59.0413H4.87565C4.13525 59.0413 3.42518 58.7472 2.90164 58.2237C2.37811 57.7001 2.08398 56.9901 2.08398 56.2497V39.083C2.08398 38.3426 2.37811 37.6325 2.90164 37.109C3.42518 36.5855 4.13525 36.2913 4.87565 36.2913C6.4117 36.2913 7.88483 35.6812 8.97098 34.595C10.0571 33.5089 10.6673 32.0357 10.6673 30.4997C10.6673 28.9636 10.0571 27.4905 8.97098 26.4044C7.88483 25.3182 6.4117 24.708 4.87565 24.708C4.13526 24.708 3.42518 24.4139 2.90164 23.8903L1.861 24.931L2.90164 23.8903C2.37811 23.3668 2.08398 22.6567 2.08398 21.9163V4.74967C2.08398 4.00928 2.37811 3.29921 2.90164 2.77567C3.42518 2.25213 4.13526 1.95801 4.87565 1.95801H82.1257C82.8661 1.95801 83.5761 2.25213 84.0997 2.77567L85.1566 1.71875L84.0997 2.77567C84.6232 3.29921 84.9173 4.00928 84.9173 4.74967V21.9163C84.9173 22.6567 84.6232 23.3668 84.0997 23.8903ZM78.3458 19.8072L79.334 19.4485V18.3972V9.04134V7.54134H77.834H34.9173H33.4173V9.04134C33.4173 9.78174 33.1232 10.4918 32.5997 11.0153C32.0761 11.5389 31.366 11.833 30.6257 11.833C29.8853 11.833 29.1752 11.5389 28.6516 11.0153C28.1281 10.4918 27.834 9.78174 27.834 9.04134V7.54134H26.334H9.16732H7.66732V9.04134V18.3972V19.4485L8.65556 19.8072C10.8515 20.6042 12.7488 22.058 14.0896 23.9711C15.4304 25.8841 16.1497 28.1636 16.1497 30.4997C16.1497 32.8358 15.4304 35.1153 14.0896 37.0283C12.7488 38.9413 10.8515 40.3952 8.65556 41.1922L7.66732 41.5509V42.6022V51.958V53.458H9.16732H26.334H27.834V51.958C27.834 51.2176 28.1281 50.5075 28.6516 49.984C29.1752 49.4605 29.8853 49.1663 30.6257 49.1663C31.3661 49.1663 32.0761 49.4605 32.5997 49.984C33.1232 50.5075 33.4173 51.2176 33.4173 51.958V53.458H34.9173H77.834H79.334V51.958V42.6022V41.5509L78.3458 41.1922C76.1498 40.3952 74.2525 38.9413 72.9117 37.0283C71.5709 35.1153 70.8516 32.8358 70.8516 30.4997C70.8516 28.1636 71.5709 25.8841 72.9117 23.9711C74.2525 22.058 76.1498 20.6042 78.3458 19.8072ZM28.6516 24.234C29.1752 23.7105 29.8853 23.4163 30.6257 23.4163C31.3661 23.4163 32.0761 23.7105 32.5997 24.234C33.1232 24.7575 33.4173 25.4676 33.4173 26.208V34.7913C33.4173 35.5317 33.1232 36.2418 32.5997 36.7653C32.0761 37.2889 31.366 37.583 30.6257 37.583C29.8853 37.583 29.1752 37.2889 28.6516 36.7654C28.1281 36.2418 27.834 35.5317 27.834 34.7913V26.208C27.834 25.4676 28.1281 24.7575 28.6516 24.234Z" fill="white" stroke="#0C0839" stroke-width="3"/>
</svg>
