<svg width="103" height="103" viewBox="0 0 103 103" fill="none" xmlns="http://www.w3.org/2000/svg">
<path d="M92.0992 44.8903L93.1598 45.951L92.0992 44.8904C91.5756 45.4139 90.8656 45.708 90.1252 45.708C88.5891 45.708 87.116 46.3182 86.0298 47.4043C84.9437 48.4905 84.3335 49.9636 84.3335 51.4997C84.3335 53.0357 84.9437 54.5089 86.0298 55.595C87.116 56.6812 88.5891 57.2913 90.1252 57.2913C90.8656 57.2913 91.5756 57.5855 92.0992 58.109C92.6227 58.6325 92.9168 59.3426 92.9168 60.083V77.2497C92.9168 77.9901 92.6227 78.7001 92.0992 79.2237C91.5756 79.7472 90.8656 80.0413 90.1252 80.0413H12.8752C12.1348 80.0413 11.4247 79.7472 10.9012 79.2237C10.3776 78.7001 10.0835 77.9901 10.0835 77.2497V60.083C10.0835 59.3426 10.3776 58.6325 10.9012 58.109C11.4247 57.5855 12.1348 57.2913 12.8752 57.2913C14.4112 57.2913 15.8843 56.6812 16.9705 55.595C18.0566 54.5089 18.6668 53.0357 18.6668 51.4997C18.6668 49.9636 18.0566 48.4905 16.9705 47.4044C15.8843 46.3182 14.4112 45.708 12.8752 45.708C12.1348 45.708 11.4247 45.4139 10.9012 44.8903L9.86051 45.931L10.9012 44.8903C10.3776 44.3668 10.0835 43.6567 10.0835 42.9163V25.7497C10.0835 25.0093 10.3776 24.2992 10.9012 23.7757C11.4247 23.2521 12.1348 22.958 12.8752 22.958H90.1252C90.8656 22.958 91.5756 23.2521 92.0992 23.7757L93.1561 22.7187L92.0992 23.7757C92.6227 24.2992 92.9168 25.0093 92.9168 25.7497V42.9163C92.9168 43.6567 92.6227 44.3668 92.0992 44.8903ZM86.3453 40.8072L87.3335 40.4485V39.3972V30.0413V28.5413H85.8335H42.9168H41.4168V30.0413C41.4168 30.7817 41.1227 31.4918 40.5992 32.0153C40.0756 32.5389 39.3656 32.833 38.6252 32.833C37.8848 32.833 37.1747 32.5389 36.6512 32.0153C36.1276 31.4918 35.8335 30.7817 35.8335 30.0413V28.5413H34.3335H17.1668H15.6668V30.0413V39.3972V40.4485L16.6551 40.8072C18.851 41.6042 20.7483 43.058 22.0891 44.9711C23.4299 46.8841 24.1492 49.1636 24.1492 51.4997C24.1492 53.8358 23.4299 56.1153 22.0891 58.0283C20.7483 59.9413 18.851 61.3952 16.6551 62.1922L15.6668 62.5509V63.6022V72.958V74.458H17.1668H34.3335H35.8335V72.958C35.8335 72.2176 36.1276 71.5075 36.6512 70.984C37.1747 70.4605 37.8848 70.1663 38.6252 70.1663C39.3656 70.1663 40.0756 70.4605 40.5992 70.984C41.1227 71.5075 41.4168 72.2176 41.4168 72.958V74.458H42.9168H85.8335H87.3335V72.958V63.6022V62.5509L86.3453 62.1922C84.1493 61.3952 82.252 59.9413 80.9112 58.0283C79.5704 56.1153 78.8511 53.8358 78.8511 51.4997C78.8511 49.1636 79.5704 46.8841 80.9112 44.9711C82.252 43.058 84.1493 41.6042 86.3453 40.8072ZM36.6512 45.234C37.1747 44.7105 37.8848 44.4163 38.6252 44.4163C39.3656 44.4163 40.0756 44.7105 40.5992 45.234C41.1227 45.7575 41.4168 46.4676 41.4168 47.208V55.7913C41.4168 56.5317 41.1227 57.2418 40.5992 57.7653C40.0756 58.2889 39.3656 58.583 38.6252 58.583C37.8848 58.583 37.1747 58.2889 36.6512 57.7654C36.1276 57.2418 35.8335 56.5317 35.8335 55.7913V47.208C35.8335 46.4676 36.1276 45.7575 36.6512 45.234Z" fill="black" stroke="white" stroke-width="3"/>
</svg>
